<svg xmlns="http://www.w3.org/2000/svg" viewBox="0 0 500 500"><g id="freepik--background-complete--inject-123"><path d="M66.36,446.37c6.35,0,164.86-1.11,209.63-1.11,3.13,0-.83-5.42-2.55-5.79-5.51-1.21-11.25-1.27-16.84-1.85a55.17,55.17,0,0,1-16-4c-4.41-1.86-8.8-4-13.57-4.75-9.23-1.45-17.32,3.55-26,5.75a19.58,19.58,0,0,1-15.73-2.14c-4-2.4-7.63-5.28-11.81-7.4a64.83,64.83,0,0,0-51.8-2.37,59.65,59.65,0,0,0-11.33,5.8c-4.22,2.77-7.86,6.31-12.1,9.05-9.39,6.08-21,4.1-31.24,7.58C66.45,445.31,65.82,446.37,66.36,446.37Z" style="fill:#ebebeb"></path><path d="M302,265.3c8.4,0,149.71.93,158.59.65.64,0,1-1,.35-1.28-5.6-2.77-11.95-2.21-17.77-4.17-3.42-1.16-5.53-3.39-7.9-6a16.35,16.35,0,0,0-7.36-4.8,15.4,15.4,0,0,0-8-.25c-2.87.68-5.36,2.32-8.09,3.36-6.79,2.56-13.39.13-18.24-4.9-4-4.14-7.92-8-13.36-10.28-4.55-1.86-9.6-2.25-14.15-.19-5.19,2.35-8.74,7.07-13.61,9.91-5.77,3.37-12.68,2.58-19.05,3.59s-11.27,6.39-16.86,9.48a12,12,0,0,1-6.1,1.89,36.4,36.4,0,0,1-3.71-.53c-1.92-.23-3.75-.18-5,1.43C301.36,263.64,301.43,265.3,302,265.3Z" style="fill:#ebebeb"></path><path d="M39.1,85.87c6.14,0,109.31.68,115.79.47.47,0,.72-.7.25-.93-4.08-2-8.72-1.61-13-3-2.5-.84-4-2.47-5.77-4.35a11.89,11.89,0,0,0-5.36-3.5,11.27,11.27,0,0,0-5.85-.18c-2.09.49-3.91,1.69-5.91,2.45-5,1.87-9.77.09-13.31-3.58-2.92-3-5.79-5.87-9.75-7.5a13,13,0,0,0-10.34-.14c-3.78,1.71-6.38,5.16-9.94,7.23-4.21,2.47-9.25,1.88-13.9,2.63s-8.23,4.66-12.31,6.92a8.75,8.75,0,0,1-4.45,1.38c-.91,0-1.81-.27-2.71-.39-1.41-.17-2.74-.13-3.68,1C38.66,84.66,38.7,85.87,39.1,85.87Z" style="fill:#ebebeb"></path><path d="M337.32,355c6.13,0,109.3.68,115.78.48.47,0,.72-.7.26-.93-4.09-2-8.73-1.62-13-3.05-2.5-.84-4-2.48-5.76-4.35a12,12,0,0,0-5.37-3.51,11.38,11.38,0,0,0-5.85-.18c-2.09.5-3.91,1.7-5.91,2.45-4.95,1.87-9.77.1-13.31-3.57-2.92-3-5.79-5.88-9.75-7.51a13,13,0,0,0-10.34-.14c-3.78,1.72-6.38,5.16-9.93,7.24-4.22,2.46-9.26,1.88-13.91,2.62s-8.23,4.66-12.31,6.92a8.72,8.72,0,0,1-4.45,1.38c-.91,0-1.81-.27-2.71-.38-1.4-.18-2.74-.14-3.68,1C336.87,353.8,336.91,355,337.32,355Z" style="fill:#ebebeb"></path><path d="M53.1,371.48c6.13,0,109.3.67,115.79.47.46,0,.71-.7.25-.93-4.09-2-8.72-1.62-13-3-2.5-.84-4-2.48-5.77-4.35a12.08,12.08,0,0,0-5.37-3.51,11.45,11.45,0,0,0-5.84-.18c-2.1.5-3.91,1.7-5.91,2.46-5,1.87-9.77.09-13.31-3.58-2.92-3-5.79-5.87-9.76-7.5a12.94,12.94,0,0,0-10.33-.15c-3.79,1.72-6.38,5.17-9.94,7.24-4.21,2.46-9.25,1.88-13.91,2.62s-8.22,4.67-12.31,6.92a8.63,8.63,0,0,1-4.45,1.38c-.91,0-1.8-.27-2.71-.38-1.4-.17-2.73-.13-3.68,1C52.65,370.26,52.7,371.48,53.1,371.48Z" style="fill:#ebebeb"></path><path d="M320,75c6.13,0,109.3.68,115.78.48.47,0,.72-.7.26-.93-4.09-2-8.73-1.62-13-3-2.5-.84-4-2.48-5.77-4.35A12,12,0,0,0,412,63.59a11.38,11.38,0,0,0-5.85-.18c-2.09.5-3.91,1.7-5.9,2.45-5,1.87-9.78.1-13.32-3.57-2.91-3-5.78-5.88-9.75-7.51a13,13,0,0,0-10.34-.14c-3.78,1.72-6.38,5.16-9.93,7.24-4.22,2.46-9.26,1.88-13.91,2.62s-8.23,4.66-12.31,6.92a8.72,8.72,0,0,1-4.45,1.38c-.91,0-1.81-.27-2.71-.38-1.4-.18-2.74-.14-3.68,1C319.58,73.74,319.62,75,320,75Z" style="fill:#ebebeb"></path><path d="M211.94,181.69c6.13,0,109.3.68,115.78.47.47,0,.72-.7.26-.93-4.09-2-8.73-1.62-13-3-2.49-.84-4-2.47-5.76-4.35a12,12,0,0,0-5.37-3.5,11.38,11.38,0,0,0-5.85-.19c-2.09.5-3.91,1.7-5.91,2.46-4.95,1.87-9.77.09-13.31-3.58-2.92-3-5.78-5.87-9.75-7.5a12.92,12.92,0,0,0-10.34-.14c-3.78,1.71-6.38,5.16-9.93,7.23-4.22,2.47-9.26,1.88-13.91,2.63s-8.23,4.66-12.31,6.92a8.71,8.71,0,0,1-4.45,1.37c-.91,0-1.81-.27-2.71-.38-1.4-.17-2.74-.13-3.68,1C211.49,180.48,211.53,181.69,211.94,181.69Z" style="fill:#ebebeb"></path><path d="M156.28,135.78c.12.34,162.61,0,160.56,0-.94,0,1.42-1.4.5-1.85-5.29-2.63-11.08-2.7-16.84-3.23a26,26,0,0,1-9.83-2.39c-3.06-1.6-5-4.39-7.15-7a30.54,30.54,0,0,0-27.75-10.51c-11.55,1.81-20.66,10.61-32.23,12.23-6.95,1-13.53-1.72-20.32-2.67-5.6-.77-10.26.32-15.26,2.8-3.67,1.81-7.06,3.34-11.2,3.63-3.18.22-6.37-.14-9.56-.17a21.43,21.43,0,0,0-14.08,5.62C152.61,132.74,151,135.78,156.28,135.78Z" style="fill:#ebebeb"></path></g><g id="freepik--Cat--inject-123"><path d="M261.41,298.52c-3-3.56-4.1-6.33-4.52-9s-1.9-38.21,14-52.31c3.47-3.08,6.37-.61,8.75,2.87,8,11.66,14.31,12.21,15.58,15S261.41,298.52,261.41,298.52Z" style="fill:#455a64"></path><path d="M274.89,252.11c-2.91,2-4.88,13.68-2.79,19.64.37,1.07,9.94-9.81,10.13-10.9s-1.2-2.17-3.39-5.38C277.11,252.94,276.1,251.25,274.89,252.11Z" style="fill:#ff9bbc"></path><path d="M323.14,253.73c.67-3,5.13-8.92,17.1-15.53,9.54-5.26,16.42-5.64,19.05-4.67,3.34,1.24,2.26,9.82,2.06,20.68s1.58,24,.4,24.72S323.14,253.73,323.14,253.73Z" style="fill:#455a64"></path><path d="M353.26,246.9c-2.07-.44-11.2,4.62-11.82,8-.21,1.1,9.64,7.3,10.6,6.78s.9-4.87,1.54-8.71C354.11,249.74,354.71,247.21,353.26,246.9Z" style="fill:#ff9bbc"></path><path d="M394.93,377c13.93-3.21,27.86-.61,35.44,8.47,6.5,7.79,3.51,23.08-2,31.34,0,0,22.09,1.93,26.95,10.73,3,5.46-2.42,14.77-7.48,16s-17.49-1.41-25.24-1.22-22.53,2-29.62-.34c-15.45-5.19-23.35-15.78-22.36-35.51A31.36,31.36,0,0,1,394.93,377Z" style="fill:#455a64"></path><path d="M448.42,432.68c2.63-1.4,7.9,2,6.09,5a2.64,2.64,0,0,0-1-1.69c-1.64-1.32-3.24-2-5.13-3.32Z" style="fill:#263238"></path><path d="M450.42,427.62c2.63-1.4,7.9,2,6.09,5a2.68,2.68,0,0,0-1-1.69c-1.63-1.32-3.24-2-5.12-3.32Z" style="fill:#263238"></path><path d="M354.88,345.16c2.64-2.22,20.07-19.31,24-24.32,2-2.63,3.68-12,9.52-14,6.41-2.17,12.48,6,14.53,10.85,1.26,2.93,1.47,8.45-1.62,14.56s-8.18,20-12,28S375.54,378,375.54,378Z" style="fill:#455a64"></path><path d="M375.55,378a110.44,110.44,0,0,0,7.67-8.65l-17.32-34.8c-5.3,4.91-9.46,9.31-11,10.62Z" style="opacity:0.1"></path><path d="M389.55,319.71c2-.81,7.24,5,7.85,8.07s-4.21,5.48-6.5,4.63c-1.93-.71-2-3.11-2.51-6.83C388,322.89,388.1,320.31,389.55,319.71Z" style="fill:#ff9bbc"></path><path d="M390.76,318.52c-1.18.68-2.82-2.23-2-2.81S392.5,317.51,390.76,318.52Z" style="fill:#ff9bbc"></path><path d="M387.55,319.32c-1.41.57-2.67-2.71-1.66-3.22S389.62,318.47,387.55,319.32Z" style="fill:#ff9bbc"></path><path d="M386.78,323.73c-1.58.65-3-3-1.82-3.54S389.12,322.77,386.78,323.73Z" style="fill:#ff9bbc"></path><path d="M393.54,321c-1.05.22-2.05-2.63-1.26-3S395.69,320.57,393.54,321Z" style="fill:#ff9bbc"></path><path d="M253.63,328.66c-.4,4.31,13,19.83,16.7,21.53,0,0,7.07,29.9,7.91,42.63s-1.18,30.21,0,38,11.71,21.9,17.65,25.63,30.38,9.13,45.15,6.42,23.08-14.9,31.23-17.45,28.85-6.28,33.77-14.77-7-40.35-14.08-50.72-33.41-36.32-33.41-36.32a61.82,61.82,0,0,0,21.13-30.57c1.55-5-18.88-42.85-40.17-59.58-4.75-3.73-44.64-3.32-52.95,3.4C278.58,263.32,257,292,253.63,328.66Z" style="fill:#455a64"></path><path d="M390.74,378.26c3.1,3.38,5.09,7.62,7.06,11.71a73.78,73.78,0,0,1,4.67,12.86c-1.54-3.62-3.92-8.8-5.58-12.44-1.94-4.1-3.68-8.31-6.15-12.13Z" style="fill:#263238"></path><path d="M389.43,440.59c4-2,8.17-3.79,12.28-5.57a24.87,24.87,0,0,1-12.28,5.57Z" style="fill:#263238"></path><path d="M373.22,327.22c-3.23,6.61-8.05,12.93-14.67,16.4,5.71-4.52,10.32-10.6,14.67-16.4Z" style="fill:#263238"></path><path d="M288.13,255.86c12.76-6.54,32.63-6.81,46.5-3.88-15.57-.08-31.37-.24-46.5,3.88Z" style="fill:#263238"></path><path d="M265.75,286.55c-2.45,5.48-4.37,11.38-6.83,16.86,1.17-6,3.14-12,6.83-16.86Z" style="fill:#263238"></path><path d="M358.09,273.06a40.93,40.93,0,0,1,8.16,11.6,61.24,61.24,0,0,1-8.16-11.6Z" style="fill:#263238"></path><path d="M344.92,296.14c3.56-.87,6.22,2.24,7.24,6.38.82,3.36-.44,7.31-3.85,8.15s-6.52-2.67-7.29-5.83S341.06,297.09,344.92,296.14Z" style="fill:#263238"></path><path d="M300.85,303.42c-5-.24-7.65,3.44-7.87,7.89a7.45,7.45,0,0,0,7.35,7.66,7.93,7.93,0,0,0,8.08-7.32A7.83,7.83,0,0,0,300.85,303.42Z" style="fill:#263238"></path><path d="M323.21,308.42c.24.94,6.41,3.68,7.07,3.59s6-4.38,6-5.35-5.33-.59-6.68-.41S323,307.5,323.21,308.42Z" style="fill:#263238"></path><path d="M341.42,312.83a46.67,46.67,0,0,1-2.4,4.28,10.72,10.72,0,0,1-1.45,1.83,1,1,0,0,1-1.54.18,6.17,6.17,0,0,1-1.53-1.53,16.78,16.78,0,0,1-1.24-2,35.49,35.49,0,0,1-2-4.34l-1.05-2.74-.58,2.87A35.18,35.18,0,0,1,328,317a15.65,15.65,0,0,1-1.27,2.56,4.55,4.55,0,0,1-1.82,1.78l-.27.09-.28,0a4.44,4.44,0,0,1-.63,0,5.65,5.65,0,0,1-1.31-.35,11.2,11.2,0,0,1-2.48-1.46,29,29,0,0,1-4.32-4.13,22.46,22.46,0,0,0,3.82,4.73,10.92,10.92,0,0,0,2.55,1.82,4.51,4.51,0,0,0,3.35.47,5.49,5.49,0,0,0,2.6-2.16,16.71,16.71,0,0,0,1.53-2.77,32.81,32.81,0,0,0,1.84-5.9l-1.62.14a31.78,31.78,0,0,0,2.22,4.54,18.57,18.57,0,0,0,1.47,2.11,6.6,6.6,0,0,0,2.09,1.76,2.68,2.68,0,0,0,1.58.28,2.54,2.54,0,0,0,1.3-.86,9.84,9.84,0,0,0,1.38-2.18A26.47,26.47,0,0,0,341.42,312.83Z" style="fill:#263238"></path><path d="M332.91,307c.08.51-1.16,1.11-2.75,1.34s-3,0-3-.51,1.16-1.1,2.75-1.33S332.84,306.44,332.91,307Z" style="fill:#37474f"></path><path d="M362.63,311.38c3.67-.68,7.36-1.24,11.07-1.72s7.41-.9,11.13-1.16c1.85-.18,3.72-.28,5.58-.4s3.72-.17,5.59-.22c3.73-.15,7.46-.09,11.2-.08-1.86-.15-3.72-.31-5.59-.39s-3.75-.12-5.62-.11c-3.74,0-7.49.18-11.22.45s-7.46.74-11.16,1.34c-1.84.3-3.69.63-5.52,1S364.43,310.87,362.63,311.38Z" style="fill:#263238"></path><path d="M364.37,313.37c1.68-.1,3.36-.2,5.05-.26s3.36-.16,5-.2c3.37-.11,6.73-.19,10.09-.15,1.68,0,3.37,0,5.05,0l5,.15,2.52.1,2.52.15c1.69.06,3.36.25,5.05.33-3.33-.53-6.69-.93-10.06-1.15s-6.74-.34-10.12-.36-6.75.09-10.12.32S367.7,312.86,364.37,313.37Z" style="fill:#263238"></path><path d="M363.64,315.58c1.41.08,2.81.16,4.21.28s2.79.2,4.19.33c2.79.25,5.59.5,8.37.81s5.57.64,8.35,1,5.56.77,8.35,1.14c-1.37-.34-2.74-.65-4.11-.94s-2.76-.54-4.15-.77c-2.77-.5-5.56-.86-8.36-1.18s-5.6-.52-8.41-.64S366.45,315.43,363.64,315.58Z" style="fill:#263238"></path><path d="M280.73,324c-2.32,0-4.63.19-7,.35s-4.62.43-6.93.71c-4.61.55-9.2,1.31-13.76,2.2s-9.08,2-13.55,3.23c-2.24.61-4.45,1.31-6.67,2-1.11.35-2.2.74-3.29,1.13l-3.27,1.19c4.45-1.32,8.88-2.67,13.38-3.77,2.24-.58,4.5-1.1,6.75-1.64s4.52-1,6.8-1.42c4.53-.94,9.11-1.69,13.69-2.36S276.11,324.38,280.73,324Z" style="fill:#263238"></path><path d="M279.33,327c-4.15.56-8.26,1.35-12.36,2.23s-8.14,1.94-12.18,3.06-8,2.41-11.95,3.83-7.83,3-11.64,4.72c2-.69,3.91-1.49,5.9-2.14l3-1.05,3-1c2-.66,4-1.28,6-1.91s4-1.2,6-1.75c4-1.17,8.05-2.22,12.11-3.22q3-.75,6.09-1.44C275.24,327.83,277.28,327.39,279.33,327Z" style="fill:#263238"></path><path d="M280.94,329.35c-3.39.81-6.73,1.85-10,3s-6.58,2.35-9.82,3.63-6.44,2.7-9.59,4.21c-1.58.74-3.13,1.53-4.69,2.3s-3.09,1.63-4.62,2.47c3.19-1.41,6.35-2.87,9.55-4.24s6.4-2.75,9.63-4,6.47-2.56,9.73-3.79c1.62-.62,3.26-1.21,4.9-1.79S279.29,329.91,280.94,329.35Z" style="fill:#263238"></path><path d="M320,340.46a21.32,21.32,0,0,0,7.33-3.62c.16-.13.49.08.47.3-.06.61-.23,2.31-.26,2.57l.39-.28a13.73,13.73,0,0,0,1.22-1.05,15,15,0,0,0,3.54-5.29c.4-1,.65-2.1.95-3.17,0-.05.11,0,.11.05a11.27,11.27,0,0,1-.5,3.48,14.65,14.65,0,0,1-1.25,3,13.42,13.42,0,0,1-1.93,2.62,13.75,13.75,0,0,1-1.26,1.15,3.81,3.81,0,0,1-1.45.89c-.38.11-.76-.44-.66-.72s.46-2.44.5-2.77a13.85,13.85,0,0,1-2.9,1.79,16.39,16.39,0,0,1-4.16,1.25C320,340.7,319.89,340.5,320,340.46Z" style="fill:#263238"></path><path d="M288,316.53a11,11,0,0,0-5.61.47.14.14,0,0,0,0,.27,11.59,11.59,0,0,0,5.61-.36C288.11,316.82,288.13,316.58,288,316.53Z" style="fill:#263238"></path><path d="M289.79,319a9,9,0,0,0-4.44,2.83.15.15,0,0,0,.18.22c1.31-.2,4.17-2,4.51-2.73A.24.24,0,0,0,289.79,319Z" style="fill:#263238"></path><path d="M292.15,320.85a5.3,5.3,0,0,0-1.66,3.47.15.15,0,0,0,.23.11,5.68,5.68,0,0,0,1.76-3.42C292.45,320.89,292.25,320.77,292.15,320.85Z" style="fill:#263238"></path><path d="M357.17,306.13a11,11,0,0,1,5.45-1.41c.13,0,.21.16.08.26a11.67,11.67,0,0,1-5.42,1.51A.21.21,0,0,1,357.17,306.13Z" style="fill:#263238"></path><path d="M356.26,309.09a9,9,0,0,1,5.13,1.2.15.15,0,0,1-.1.27c-1.31.25-4.58-.48-5.16-1.09A.24.24,0,0,1,356.26,309.09Z" style="fill:#263238"></path><path d="M354.64,311.6a5.29,5.29,0,0,1,2.71,2.72.15.15,0,0,1-.18.18,5.61,5.61,0,0,1-2.79-2.65C354.36,311.73,354.51,311.56,354.64,311.6Z" style="fill:#263238"></path><path d="M309.22,353.19a81.91,81.91,0,0,0,38.58-7.11c-10.13,7.86-26.31,10.75-38.58,7.11Z" style="opacity:0.2"></path><path d="M320,357.48a42.6,42.6,0,0,0,20.62-3.8,24.75,24.75,0,0,1-20.62,3.8Z" style="opacity:0.2"></path><path d="M278.37,395.37c-2-5.78-17.3-22.75-19.83-35.48s6.16-28.19,22.4-30c8.11-.9,17.05,10.42,18.29,17.32s-4.48,13-13.69,12.78a35.8,35.8,0,0,1-8.14-1.44Z" style="fill:#455a64"></path><path d="M289.48,352c2.95.45,5.12,6.35,1.88,7.65a2.63,2.63,0,0,0,.24-1.93c-.52-2-1.39-3.54-2.12-5.72Z" style="fill:#263238"></path><path d="M294.11,349.13c2.94.46,5.12,6.35,1.88,7.66a2.73,2.73,0,0,0,.24-1.93c-.52-2-1.4-3.55-2.12-5.73Z" style="fill:#263238"></path><path d="M261.86,342.12c4-8.16,13.76-14.22,23.15-12.82,5.76,1.32,9.89,6.14,12.53,11.15,1.84,3.85,3.43,8.37,2,12.66a11.78,11.78,0,0,1-7.48,6.72c-3.7,1-7.52.58-11.19-.11a35.93,35.93,0,0,1-10.44-3.51A39.84,39.84,0,0,0,281,358.75c3.5.43,7.22.67,10.58-.4a10.39,10.39,0,0,0,6.2-5.89c1.07-3.68-.4-7.75-2.05-11.1-2.71-5.21-7.37-10.66-13.66-10.61-8.05-.06-15.91,4.58-20.24,11.37Z" style="fill:#263238"></path><path d="M289,411.06c3.13-5.69,11.56-15.33,28.17-12.22,7.46,1.4,15.7,10.7,15.7,10.7s3.42-6.88,6.7-9.93,18.22-5.69,21.73,3.36-5.21,25.46-6,30.78.24,9.86-4.06,13.25-13.42,2.55-15.32,2.17c-2.91-.6-3.8-1.48-3.8-1.48s-19,16.07-33.05,7.8C288.92,449.49,277.46,432.11,289,411.06Z" style="fill:#455a64"></path><path d="M350.38,406.29c4.1.21,8.16,9.92,6.5,13.87s-12,3.85-15.25,1.53c-2.71-1.94-.78-4.76,1.64-9.32C345,409.06,347.36,406.13,350.38,406.29Z" style="fill:#ff9bbc"></path><path d="M353.17,405.62c-2.62-.32-2.35-5.37-.41-5.27S357,406.09,353.17,405.62Z" style="fill:#ff9bbc"></path><path d="M346.92,404.6c-2.87-.6-1.48-5.54.68-5.23S351.15,405.48,346.92,404.6Z" style="fill:#ff9bbc"></path><path d="M341.35,409.13c-3.13-1.06-.89-6.49,1.48-5.85S346,410.68,341.35,409.13Z" style="fill:#ff9bbc"></path><path d="M356.64,410.35c-2-.44-1.22-5,.46-4.94S360.72,411.23,356.64,410.35Z" style="fill:#ff9bbc"></path><path d="M328.21,444.24a15.53,15.53,0,0,0,5.61,4c2.15.84,4.54.74,6.81.69,4-.31,9.78-.66,11.9-4.52,1.67-5,1.47-10.4,3.17-15.45,1.38-3.72,2.92-7.75,3.92-11.57,1.44-5.87,3.83-14.59-3-17.84a20.7,20.7,0,0,0-13.2-1.21,8.52,8.52,0,0,0-5.29,3.73,55.12,55.12,0,0,0-6.95,12.1,50.34,50.34,0,0,1,6.16-12.69,9.59,9.59,0,0,1,5.73-4.41c5.79-1.47,12.85-1.21,17.45,3.08,2.79,2.76,2.81,7.18,2.43,10.73-.67,5.9-2.74,11.59-4.83,17.1-2.38,5.44-2.05,11.51-4.18,17.06-2.92,5.29-11.62,5.1-16.85,4.61-3.6-.29-6.77-2.65-8.88-5.44Z" style="fill:#263238"></path><path d="M285.27,412.59c4-5.85,9.14-11.31,16-13.73,9.07-3.24,20-1.33,27.12,5.19a22,22,0,0,1,4.48,5.49,28.78,28.78,0,0,0-21-10.2c-11.52-.61-19.07,5.36-26.64,13.25Z" style="fill:#263238"></path><path d="M318.41,455.73c4.83-2.4,9.47-4.69,13.72-8-3.24,4.35-8.48,7-13.72,8Z" style="fill:#263238"></path><path d="M391.89,242.9c.72,52.74.81,111.92.22,164.66-.73-52.74-.8-111.92-.22-164.66Z" style="fill:#263238"></path><g style="opacity:0.8"><path d="M384.79,247.8s-5.08,15.93-4.23,16.8,21.35,1,21.79.16-3.11-16.85-3.11-16.85Z" style="fill:#B02B0B"></path><path d="M392.49,120.58c-34.74-.26-63.09,27.36-61.46,69.76s41.29,60.82,58.76,60.95c12.62.09,62.85-9.89,63.25-63.28C453.37,142.39,427.11,120.84,392.49,120.58Z" style="fill:#B02B0B"></path></g><circle cx="380.4" cy="166.56" r="38.46" transform="translate(-9.4 23.38) rotate(-3.48)" style="fill:#fff;opacity:0.2"></circle><path d="M355.23,162.56A23,23,0,1,0,370.77,134,23,23,0,0,0,355.23,162.56Z" style="fill:#fff;opacity:0.4"></path><path d="M391.14,305.32c5.81.81,11.9,10,12.21,14.29a21.4,21.4,0,0,1-2.84,12.88l-.9-4.39s-8.11,4.23-12.73-1.34S379.65,303.72,391.14,305.32Z" style="fill:#455a64"></path><path d="M401.48,327.11c-3.81,2.3-9.09,3.95-13.3,1.53-3.88-2.8-5.48-7.78-5.8-12.36a13.61,13.61,0,0,1,2.28-8.77,14.89,14.89,0,0,0-1.51,8.71c1.66,11.51,7.25,15.76,18.33,10.89Z" style="fill:#263238"></path><path d="M399.61,328.1a4,4,0,0,1,.75,2.71,4,4,0,0,1-.75-2.71Z" style="fill:#263238"></path><path d="M391.32,320.13c-3-.33-6.76,4.93-3.9,7.09a2.77,2.77,0,0,1,.27-2c1.06-1.88,2.33-3.14,3.63-5.11Z" style="fill:#263238"></path><path d="M388.12,313.94c-3-.33-6.76,4.93-3.9,7.09a2.72,2.72,0,0,1,.28-2c1.06-1.88,2.33-3.14,3.62-5.11Z" style="fill:#263238"></path></g><g id="freepik--Dog--inject-123"><path d="M133.71,246.47C131,244.2,117.59,234.16,113.59,229c-2.1-2.7-3.78-12.32-9.77-14.35-6.57-2.23-12.8,6.2-14.9,11.13-1.29,3-1.51,8.67,1.66,14.94s3.92,13,7.89,21.23,14,18.19,14,18.19Z" style="fill:#B02B0B"></path><path d="M133.71,246.47C131,244.2,117.59,234.16,113.59,229c-2.1-2.7-3.78-12.32-9.77-14.35-6.57-2.23-12.8,6.2-14.9,11.13-1.29,3-1.51,8.67,1.66,14.94s3.92,13,7.89,21.23,14,18.19,14,18.19Z" style="fill:#fff;opacity:0.5"></path><path d="M112.51,280.15a109.48,109.48,0,0,1-7.87-8.87l17.23-34.34c4.92,4.15,10.24,8.19,11.84,9.54Z" style="opacity:0.1"></path><path d="M98.15,220.37c-2-.83-7.43,5.09-8.06,8.28s4.32,5.62,6.67,4.75c2-.73,2.08-3.19,2.57-7C99.69,223.63,99.63,221,98.15,220.37Z" style="fill:#ff9bbc"></path><path d="M96.9,219.14c1.21.7,2.9-2.28,2-2.87S95.12,218.11,96.9,219.14Z" style="fill:#ff9bbc"></path><path d="M100.2,220c1.44.59,2.73-2.78,1.7-3.3S98.07,219.1,100.2,220Z" style="fill:#ff9bbc"></path><path d="M101,224.5c1.63.66,3-3,1.87-3.63S98.59,223.51,101,224.5Z" style="fill:#ff9bbc"></path><path d="M94.05,221.7c1.07.21,2.1-2.7,1.29-3.08S91.85,221.25,94.05,221.7Z" style="fill:#ff9bbc"></path><path d="M105.48,279.22c-12.89-8.53-32-4.44-32-4.44s-.72-6.34-2.13-8.79-8.07-4.06-11.49-.1c-4.32,5-11.83,21.37-5.65,28.24S68,307,69.57,309.24c3.17,4.46,11.56,14.13,20.52,27.47Z" style="fill:#B02B0B"></path><path d="M105.48,279.22c-12.89-8.53-32-4.44-32-4.44s-.72-6.34-2.13-8.79-8.07-4.06-11.49-.1c-4.32,5-11.83,21.37-5.65,28.24S68,307,69.57,309.24c3.17,4.46,11.56,14.13,20.52,27.47Z" style="fill:#fff;opacity:0.5"></path><path d="M62.1,270.52c-2.27-.65-7.39,6.37-7.69,9.88s5.33,5.53,7.76,4.32c2-1,1.86-3.68,1.93-7.86C64.15,273.84,63.78,271,62.1,270.52Z" style="fill:#ff9bbc"></path><path d="M60.61,269.35c1.39.6,2.85-2.81,1.86-3.35S58.57,268.45,60.61,269.35Z" style="fill:#ff9bbc"></path><path d="M64.26,269.84c1.63.46,2.62-3.32,1.44-3.76S61.86,269.16,64.26,269.84Z" style="fill:#ff9bbc"></path><path d="M65.65,274.62c1.83.53,2.9-3.63,1.58-4.13S63,273.85,65.65,274.62Z" style="fill:#ff9bbc"></path><path d="M57.84,272.44c1.19.1,1.94-3.16,1-3.47S55.42,272.22,57.84,272.44Z" style="fill:#ff9bbc"></path><path d="M90.09,336.71c-9-13.34-17.35-23-20.52-27.47a28.2,28.2,0,0,0-3.3-3.36l33.35-29.59a27.8,27.8,0,0,1,5.85,2.92Z" style="opacity:0.1"></path><path d="M234,187.52c3.41,4.93,2.48,13.68,3.52,15.15s8.65,20.47,10.12,30.49-4.49,18.78-4.49,18.78,5.52,33.29-6,71.66-31.34,62.65-47.85,68.17S155,394,132,378.56,82.8,334,77.1,316.9s32.59-47.31,33.29-47.86,1.18-7.49,17.09-28c0,0-7-7-6.86-14.7S128.54,202.36,137,191c0,0,.7-6.41,3.52-10.07s16.58-14.67,22.73-17.53,37.21-.06,44.28,2S228.52,179.53,234,187.52Z" style="fill:#B02B0B"></path><path d="M234,187.52c3.41,4.93,2.48,13.68,3.52,15.15s8.65,20.47,10.12,30.49-4.49,18.78-4.49,18.78,5.52,33.29-6,71.66-31.34,62.65-47.85,68.17S155,394,132,378.56,82.8,334,77.1,316.9s32.59-47.31,33.29-47.86,1.18-7.49,17.09-28c0,0-7-7-6.86-14.7S128.54,202.36,137,191c0,0,.7-6.41,3.52-10.07s16.58-14.67,22.73-17.53,37.21-.06,44.28,2S228.52,179.53,234,187.52Z" style="fill:#fff;opacity:0.5"></path><g style="opacity:0.1"><path d="M127.48,241a97.86,97.86,0,0,1,11.25,8.81A33.5,33.5,0,0,1,127.48,241Z"></path><path d="M243.19,251.94a12.64,12.64,0,0,1-6.84,5.13,32.37,32.37,0,0,1,6.84-5.13Z"></path></g><path d="M224.43,274.9a31,31,0,0,0-31.34,2.72c-6.2,4.51-8,6.64-8,6.64s-17.86-1.1-30.44,10.86c-3.23,3.08-.32,13.42,6.06,14.56s21.36-1.69,27,.68S198.51,323.14,208,325s17.86-4.69,17.86-4.69Z" style="fill:#B02B0B"></path><path d="M224.43,274.9a31,31,0,0,0-31.34,2.72c-6.2,4.51-8,6.64-8,6.64s-17.86-1.1-30.44,10.86c-3.23,3.08-.32,13.42,6.06,14.56s21.36-1.69,27,.68S198.51,323.14,208,325s17.86-4.69,17.86-4.69Z" style="fill:#fff;opacity:0.5"></path><path d="M160.94,302c-2.5-1.77-8.3,1-6.85,4.3a2.7,2.7,0,0,1,1.2-1.59c1.84-1.13,3.56-1.62,5.65-2.71Z" style="fill:#263238"></path><path d="M159.57,296.59c-2.5-1.77-8.31,1-6.85,4.3a2.75,2.75,0,0,1,1.2-1.6c1.83-1.13,3.56-1.61,5.65-2.7Z" style="fill:#263238"></path><path d="M224.43,274.9c-12.57-5.4-27.1-1.16-36.91,7.76a48.8,48.8,0,0,0-6.34,6.82,31.41,31.41,0,0,1,3.35-5.36c8.95-11.69,26.94-17.82,39.9-9.22Z" style="fill:#263238"></path><path d="M185.06,284.26c-10-.67-19.86,3.34-27.68,9.32a18.48,18.48,0,0,0-2.61,2.47c-2.2,2.79-.57,6.72,1.31,9.34a9.82,9.82,0,0,0,2.46,2.36,6.94,6.94,0,0,0,3.17.8,70.38,70.38,0,0,0,7.42.08l7.53-.21c3.35,0,6.92-.39,10.22.69,4,1.86,7,5.3,10,8.3,3.43,3.51,7.36,6.74,12.39,7.24a26.62,26.62,0,0,0,14.6-2.07,25.18,25.18,0,0,1-18.51,2.32c-7.44-2.31-11.56-9.71-18-13.5a6.57,6.57,0,0,0-3.2-1,70.44,70.44,0,0,0-7.42-.06l-7.53.26c-3.51,0-7.22.31-10.67-.73a10,10,0,0,1-3.95-3.38c-2.5-3.39-4.08-9.08-.38-12.28,8.27-7.2,19.92-11.52,30.88-10Z" style="fill:#263238"></path><path d="M177.61,327.58c-25.55-9.43-49.63,8.81-46.55,37.38,0,0-17.51,1.13-21.43,6.19s.53,15.34,5.53,17.19,19.47-.52,27.33.68,17.94,6.36,25.47,4.86c16.4-3.27,29-13,30.59-33.19A32.16,32.16,0,0,0,177.61,327.58Z" style="fill:#B02B0B"></path><path d="M177.61,327.58c-25.55-9.43-49.63,8.81-46.55,37.38,0,0-17.51,1.13-21.43,6.19s.53,15.34,5.53,17.19,19.47-.52,27.33.68,17.94,6.36,25.47,4.86c16.4-3.27,29-13,30.59-33.19A32.16,32.16,0,0,0,177.61,327.58Z" style="fill:#fff;opacity:0.5"></path><path d="M115.93,377.27c-2.49-1.76-8.3,1-6.85,4.3a2.76,2.76,0,0,1,1.2-1.59c1.84-1.13,3.56-1.61,5.65-2.71Z" style="fill:#263238"></path><path d="M114.56,371.87c-2.49-1.77-8.3,1-6.85,4.3a2.73,2.73,0,0,1,1.2-1.59c1.84-1.13,3.56-1.62,5.65-2.71Z" style="fill:#263238"></path><path d="M117.24,367.21A26.66,26.66,0,0,1,131.06,365c-4.63,1-9.15,1.52-13.82,2.25Z" style="fill:#263238"></path><path d="M181.06,326.26c-12.77-2.25-27.5-1.5-37.62,7.41a35,35,0,0,0-11.19,15.83,33.21,33.21,0,0,0,.08,19.59,30.54,30.54,0,0,1-1.57-20c1.78-6.7,6.17-12.47,11.39-16.9,10.52-9.21,26.1-9.79,38.91-5.89Z" style="fill:#263238"></path><path d="M168.1,162.43c-4.15-2.79-12.72-6-14.71-5.48-2.55.64-5.91,4.8-17.36,12.46-7.9,5.29-17.13,7.75-18.44,10.07s.78,5.05,1.58,15.93c.43,5.91-3.89,15.51-2.92,16.43s12-4.05,17.25-12.87A47.92,47.92,0,0,0,139.71,182s15.38-13,17.6-14.7S168.1,162.43,168.1,162.43Z" style="fill:#B02B0B"></path><path d="M168.1,162.43c-4.15-2.79-12.72-6-14.71-5.48-2.55.64-5.91,4.8-17.36,12.46-7.9,5.29-17.13,7.75-18.44,10.07s.78,5.05,1.58,15.93c.43,5.91-3.89,15.51-2.92,16.43s12-4.05,17.25-12.87A47.92,47.92,0,0,0,139.71,182s15.38-13,17.6-14.7S168.1,162.43,168.1,162.43Z" style="opacity:0.7000000000000001"></path><path d="M209.3,166.1c4.52-2.13,13.48-4,15.37-3.18,2.42,1,5.11,5.64,15.26,15,7,6.43,15.75,10.27,16.7,12.76s-1.54,4.87-4,15.51c-1.33,5.77,1.48,15.91.38,16.67s-11.25-5.82-15.09-15.33a47.93,47.93,0,0,1-3.56-17.7s-13.22-15.2-15.16-17.21S209.3,166.1,209.3,166.1Z" style="fill:#B02B0B"></path><path d="M209.3,166.1c4.52-2.13,13.48-4,15.37-3.18,2.42,1,5.11,5.64,15.26,15,7,6.43,15.75,10.27,16.7,12.76s-1.54,4.87-4,15.51c-1.33,5.77,1.48,15.91.38,16.67s-11.25-5.82-15.09-15.33a47.93,47.93,0,0,1-3.56-17.7s-13.22-15.2-15.16-17.21S209.3,166.1,209.3,166.1Z" style="opacity:0.7000000000000001"></path><path d="M215.1,234.45c-.45,4.46-6.34,12.53-12.18,12.49-3.51,0-8.53-2.79-10.55-6.29A21.29,21.29,0,0,1,172,238.6c-2.67,3-8.15,4.74-11.59,4.08-5.73-1.12-9.9-10.21-9.46-14.66.72-7.13,13.27-12.18,15.84-14.8s8-8.74,18.82-7.7,14.95,8.22,16.93,11.28S215.81,227.32,215.1,234.45Z" style="opacity:0.7000000000000001"></path><path d="M160.85,200.14c-4.3.71-5.8,5.06-5,8.6.78,3.36,3.74,5.1,7.2,4.59,3.15-.46,5.82-4.14,4.65-8.48A6,6,0,0,0,160.85,200.14Z" style="fill:#263238"></path><path d="M207.64,204.84c-4.29.7-5.8,5-5,8.6.78,3.35,3.74,5.09,7.19,4.58,3.15-.46,5.82-4.13,4.65-8.48A6,6,0,0,0,207.64,204.84Z" style="fill:#263238"></path><path d="M151.06,208.86a10.81,10.81,0,0,0-5.53-1,.14.14,0,0,0-.06.26c1.12.72,4.63,1.41,5.51,1.13C151.13,209.18,151.22,209,151.06,208.86Z" style="fill:#263238"></path><path d="M152.17,211.75a8.88,8.88,0,0,0-5,1.55.15.15,0,0,0,.11.26c1.33.15,4.55-.8,5.08-1.44A.24.24,0,0,0,152.17,211.75Z" style="fill:#263238"></path><path d="M154,214.14a5.31,5.31,0,0,0-2.52,2.9.16.16,0,0,0,.2.17,5.68,5.68,0,0,0,2.6-2.84C154.25,214.25,154.08,214.09,154,214.14Z" style="fill:#263238"></path><path d="M218.77,215.65a11.06,11.06,0,0,1,5.64.08.14.14,0,0,1,0,.27,11.64,11.64,0,0,1-5.63,0C218.64,216,218.6,215.71,218.77,215.65Z" style="fill:#263238"></path><path d="M217.12,218.26a9,9,0,0,1,4.62,2.51.16.16,0,0,1-.16.24c-1.33-.11-4.3-1.68-4.69-2.42A.24.24,0,0,1,217.12,218.26Z" style="fill:#263238"></path><path d="M214.89,220.24a5.38,5.38,0,0,1,1.89,3.35.16.16,0,0,1-.23.13,5.67,5.67,0,0,1-2-3.3A.25.25,0,0,1,214.89,220.24Z" style="fill:#263238"></path><path d="M184.26,220.65c-1.86-.21-6.61-3-8-4.28a3.06,3.06,0,0,1,0-4.5c.82-.63,11.13-1,16.75,1.71,1.61.78.77,3.31.42,3.64C192.31,218.34,186.44,220.9,184.26,220.65Z" style="fill:#263238"></path><path d="M190.22,214.36c-.07,1-2.58,1.57-5.6,1.35s-5.42-1.18-5.35-2.15,2.58-1.57,5.6-1.35S190.29,213.39,190.22,214.36Z" style="fill:#37474f"></path><path d="M174.86,186.82c-2.66-.78-6.23-2.88-8.72-1a59.87,59.87,0,0,1-8.88,6.94,53.3,53.3,0,0,1-9.63,4.41c-1.55.67-3.08,1.38-3.84,2.79a9,9,0,0,0-.9,4.93,8.21,8.21,0,0,1,0-5.36c.68-1.8,2.44-2.94,4.05-3.78,3.23-1.61,6.39-2.79,9.25-4.69a101.61,101.61,0,0,0,8.44-6c3.12-2.85,7.37,0,10.21,1.78Z" style="opacity:0.2"></path><path d="M199.83,189.33c3.14-1.22,7.86-3.14,10.35.27,2.28,2.61,4.6,5.2,7.1,7.55s5.28,4.21,8.12,6.43c1.42,1.14,2.92,2.6,3.23,4.51a8.21,8.21,0,0,1-1,5.25,9,9,0,0,0,.09-5c-.45-1.52-1.82-2.53-3.2-3.49a53.09,53.09,0,0,1-8.57-6.23,59.64,59.64,0,0,1-7.32-8.57c-.82-1.08-2.24-1.27-3.59-1.28a38.63,38.63,0,0,0-5.16.58Z" style="opacity:0.2"></path><path d="M190.59,223.4c-1.34,6.36-3.32,9.22-7.19,9s-5.57-3.22-6.3-9.67l6.83-1.42Z" style="fill:#ff9bbc"></path><path d="M183.93,221.34a21.14,21.14,0,0,1-.39,8,21.14,21.14,0,0,1,.39-8Z" style="fill:#263238"></path><path d="M161.09,215.69c2.12,3,4.92,5.76,8.44,6.88,2.52.13,5.14-.74,7.69-1.26A48.56,48.56,0,0,1,183,220.2a12.75,12.75,0,0,1,4.34.93c3,1,6.14,2.52,9.12,3.34,1.9.39,4.09-.33,5.89-1.11a16.9,16.9,0,0,0,5.31-3.59,15.31,15.31,0,0,1-7.94,5.89c-2.14.85-4.75.27-6.84-.52-2.9-.93-6.19-2.4-9.14-2.92a9.91,9.91,0,0,0-2.92.3l-3.19.64c-2.75.42-5.56,1.31-8.46.8a15.31,15.31,0,0,1-8.07-8.27Z" style="fill:#263238"></path><path d="M175.63,233.85a16.78,16.78,0,0,0,14.59,1.46,11.33,11.33,0,0,1-14.59-1.46Z" style="fill:#263238"></path><path d="M162,250.56a82,82,0,0,0,39.09,3.37c-11.86,4.9-28.22,3.4-39.09-3.37Z" style="opacity:0.2"></path><path d="M171.23,257.56a42.59,42.59,0,0,0,20.89,1.8,24.75,24.75,0,0,1-20.89-1.8Z" style="opacity:0.2"></path><path d="M99.63,152c.58,52.74.5,111.92-.23,164.66-.58-52.74-.5-111.92.23-164.66Z" style="fill:#263238"></path><g style="opacity:0.8"><path d="M106.73,156.9s5.08,15.93,4.22,16.8-21.35,1-21.79.16S92.27,157,92.27,157Z" style="fill:#455a64"></path><path d="M99,29.68c34.74-.26,63.1,27.36,61.47,69.76s-41.29,60.82-58.77,60.95c-12.62.09-62.85-9.89-63.24-63.28C38.14,51.49,64.4,29.94,99,29.68Z" style="fill:#455a64"></path></g><path d="M148,86.56a38.46,38.46,0,1,1-26-47.79A38.46,38.46,0,0,1,148,86.56Z" style="fill:#fff;opacity:0.2"></path><path d="M136.28,71.66a23,23,0,1,1-15.54-28.58A23,23,0,0,1,136.28,71.66Z" style="fill:#fff;opacity:0.4"></path><path d="M100.38,214.41c-5.82.81-11.9,10-12.22,14.3A21.48,21.48,0,0,0,91,241.59l.91-4.39s8.1,4.23,12.73-1.34S111.86,212.81,100.38,214.41Z" style="fill:#B02B0B"></path><path d="M100.38,214.41c-5.82.81-11.9,10-12.22,14.3A21.48,21.48,0,0,0,91,241.59l.91-4.39s8.1,4.23,12.73-1.34S111.86,212.81,100.38,214.41Z" style="fill:#fff;opacity:0.5"></path><path d="M90,236.21c11.1,4.87,16.68.61,18.34-10.89a14.86,14.86,0,0,0-1.52-8.72,13.6,13.6,0,0,1,2.28,8.78c-.32,4.58-1.91,9.56-5.79,12.36-4.22,2.42-9.49.77-13.31-1.53Z" style="fill:#263238"></path><path d="M91.91,237.2a4,4,0,0,1-.76,2.71,4,4,0,0,1,.76-2.71Z" style="fill:#263238"></path><path d="M100.44,229.59c3-.33,6.76,4.93,3.9,7.09a2.77,2.77,0,0,0-.27-2c-1.06-1.88-2.33-3.14-3.63-5.11Z" style="fill:#263238"></path><path d="M103.64,223.4c3-.33,6.76,4.93,3.9,7.08a2.7,2.7,0,0,0-.28-2c-1.06-1.88-2.33-3.14-3.62-5.11Z" style="fill:#263238"></path></g></svg>
