<svg xmlns="http://www.w3.org/2000/svg" viewBox="0 0 500 500"><g id="freepik--background-complete--inject-12"><g style="opacity:0.6000000000000001"><path d="M82.58,227.78c-.46-1.35-1.09-2.64-1.65-4a40.88,40.88,0,0,0-5.75-8.66A14.42,14.42,0,0,0,73,213.27a5,5,0,0,0-7,.63,14.58,14.58,0,0,0-3.38,5.53c-1.64,4.5-2.42,9.13-1,13.78a15,15,0,0,0,9.17,10c5.26,2,10.3-.54,12-5.93A15,15,0,0,0,82.58,227.78Z" style="fill:#ebebeb"></path><path d="M107.47,225.57A15,15,0,0,0,104,210.73a22.08,22.08,0,0,0-13.84-7.07,10.69,10.69,0,0,0-2.88.07,4.8,4.8,0,0,0-4.4,4.53A17.25,17.25,0,0,0,84,215.89c.61,1.85,1.34,3.67,2,5.5a19.33,19.33,0,0,0,6.29,8.45,11.55,11.55,0,0,0,6.42,2.37A8.68,8.68,0,0,0,107.47,225.57Z" style="fill:#ebebeb"></path><path d="M126.19,240.11c3.56-4.18,4.26-9,2.55-14.17a16.25,16.25,0,0,0-.76-1.64,18.79,18.79,0,0,0-7.15-8.23,9.49,9.49,0,0,0-1-.5c-3.24-1.45-5.81-.57-7.45,2.6a19.62,19.62,0,0,0-1.89,7.48c-.29,3.38-.43,6.76.79,10a12.26,12.26,0,0,0,3.45,5.16A7.77,7.77,0,0,0,126.19,240.11Z" style="fill:#ebebeb"></path><path d="M77.64,274.8c.17.5.38,1,.63,1.62,2.37,4.54,6.37,6.58,11.5,6.48,5.42-.11,10-2.42,13.83-6.07a15.41,15.41,0,0,1,9-4.27,20.59,20.59,0,0,0,13.3-6.64c3-3.33,4.28-7.18,3-11.61a12.57,12.57,0,0,0-6.36-7.71,25,25,0,0,0-5.42-2.17,38.77,38.77,0,0,1-11.56-5.17A14.91,14.91,0,0,0,84.35,244a14.57,14.57,0,0,0-2.12,7.47,20.45,20.45,0,0,1-2.68,9.94,17.44,17.44,0,0,0-2.23,12.25A11.56,11.56,0,0,0,77.64,274.8Z" style="fill:#ebebeb"></path><path d="M56.26,257.76c2.69,5.48,6.64,8.42,12.17,9s9.71-3.39,9.25-8.93a12.05,12.05,0,0,0-1.82-5.43c-2.43-3.9-6.09-6.39-10-8.53a17.24,17.24,0,0,0-4.46-1.66c-3.21-.72-5.51.74-6.41,3.9a15.67,15.67,0,0,0,.18,8.32C55.5,255.73,56,257,56.26,257.76Z" style="fill:#ebebeb"></path><g style="opacity:0.5"><path d="M144.41,67.21c-.06-2.22-.39-4.45-.6-6.67-1.09-5.32-2.13-10.65-4.54-15.58a22.05,22.05,0,0,0-2.34-3.83c-2.85-3.66-6.53-4.42-10.65-2.3a22.89,22.89,0,0,0-7.61,6.66c-4.55,5.93-7.86,12.46-7.87,20.06s2.83,14.33,9,19.17c6.9,5.44,15.59,4,20.61-3.22A23.41,23.41,0,0,0,144.41,67.21Z" style="fill:#ebebeb"></path><path d="M182.5,75.53c4.82-7.54,5.56-15.61,1.74-23.73a34.48,34.48,0,0,0-17.32-17,16.47,16.47,0,0,0-4.32-1.24c-4-.63-6.93,1-8.66,4.69s-2,7.81-1.94,11.86c0,3,.29,6.1.44,9.15.59,5.61,2,10.92,5.42,15.52a18.11,18.11,0,0,0,8.46,6.52A13.53,13.53,0,0,0,182.5,75.53Z" style="fill:#ebebeb"></path><path d="M203.6,105.92c7.25-4.57,10.54-11.4,10.41-19.91a22.37,22.37,0,0,0-.37-2.8,29.27,29.27,0,0,0-6.8-15.58,12.05,12.05,0,0,0-1.18-1.19c-4.16-3.68-8.39-3.56-12.31.39A30.55,30.55,0,0,0,187,77.09c-2,4.9-3.79,9.87-3.51,15.31a19.31,19.31,0,0,0,2.73,9.3C190.13,108,197.37,109.84,203.6,105.92Z" style="fill:#ebebeb"></path><path d="M115.11,134.93c0,.82.11,1.64.19,2.7,1.41,7.88,6.41,12.78,14.1,15,8.11,2.36,16,1,23.42-2.58a24.09,24.09,0,0,1,15.38-2.18c8,1.46,15.8.59,22.91-3.66,6-3.57,9.73-8.71,9.94-15.89a19.62,19.62,0,0,0-5.87-14.44,39.44,39.44,0,0,0-7.05-5.76A60.1,60.1,0,0,1,173.33,95a23.29,23.29,0,0,0-33.83-2.92,22.72,22.72,0,0,0-6.65,10.13,31.87,31.87,0,0,1-8.62,13.56c-5,4.67-8.31,10.27-9,17.2A15.34,15.34,0,0,0,115.11,134.93Z" style="fill:#ebebeb"></path><path d="M91.22,99.58c1.44,9.41,6,15.64,13.93,19.07,8.17,3.51,16-.51,17.94-9a18.73,18.73,0,0,0-.18-8.93c-1.79-6.95-6.08-12.36-10.9-17.38a27.09,27.09,0,0,0-5.88-4.54c-4.44-2.58-8.54-1.48-11.36,2.81a24.57,24.57,0,0,0-3.62,12.48C91,96.2,91.2,98.31,91.22,99.58Z" style="fill:#ebebeb"></path></g><path d="M411,176.24c.69-1.25,1.24-2.58,1.85-3.88a41.27,41.27,0,0,0,2.6-10.06,13.86,13.86,0,0,0,0-2.88,5,5,0,0,0-5.11-4.75,14.62,14.62,0,0,0-6.37,1.17c-4.45,1.78-8.41,4.29-10.91,8.47a15,15,0,0,0-1.33,13.51c2,5.25,7.28,7.31,12.41,5A15,15,0,0,0,411,176.24Z" style="fill:#ebebeb"></path><path d="M429.21,193.29a15,15,0,0,0,8.73-12.49,22.13,22.13,0,0,0-4-15,10.31,10.31,0,0,0-2-2.1,4.78,4.78,0,0,0-6.3-.25,17.12,17.12,0,0,0-5,5.9c-1,1.69-1.84,3.45-2.75,5.18a19.35,19.35,0,0,0-2.1,10.32,11.61,11.61,0,0,0,2.52,6.37A8.68,8.68,0,0,0,429.21,193.29Z" style="fill:#ebebeb"></path><path d="M430.87,216.94c5.5-.14,9.54-2.82,12.26-7.55a13.72,13.72,0,0,0,.71-1.67,18.66,18.66,0,0,0,1.36-10.81,7.53,7.53,0,0,0-.26-1c-1.08-3.39-3.45-4.7-6.9-3.81a19.5,19.5,0,0,0-6.84,3.58c-2.71,2-5.32,4.19-6.95,7.28a12.33,12.33,0,0,0-1.54,6A7.76,7.76,0,0,0,430.87,216.94Z" style="fill:#ebebeb"></path><path d="M372.64,203.93c-.26.46-.48.94-.78,1.55-1.81,4.8-.65,9.14,2.84,12.89a20.39,20.39,0,0,0,13.75,6.25,15.47,15.47,0,0,1,9.18,3.84A20.62,20.62,0,0,0,411.45,234c4.46,0,8.21-1.61,10.68-5.5a12.55,12.55,0,0,0,1.49-9.87,25,25,0,0,0-2-5.48A38.82,38.82,0,0,1,417.76,201a14.93,14.93,0,0,0-17.67-12.69,14.68,14.68,0,0,0-7,3.41,20.5,20.5,0,0,1-9.18,4.64,17.38,17.38,0,0,0-10.61,6.51A9.64,9.64,0,0,0,372.64,203.93Z" style="fill:#ebebeb"></path><path d="M371.06,176.64c-2.29,5.65-1.84,10.56,1.43,15.07s9,5,12.82.93a12,12,0,0,0,2.82-5c1.29-4.4.7-8.79-.31-13.13a17.76,17.76,0,0,0-1.74-4.43c-1.61-2.88-4.23-3.61-7.18-2.17a15.67,15.67,0,0,0-6.08,5.68C372.07,174.72,371.47,175.93,371.06,176.64Z" style="fill:#ebebeb"></path></g></g><g id="freepik--Icons--inject-12"><path d="M90.68,165.67H77.63V153.76H65.71v-13H77.63V128.78H90.68v11.93H102.6v13H90.68Zm-11.05-2h9.05V151.76H100.6v-9H88.68V130.78H79.63v11.93H67.71v9H79.63Z" style="fill:#FFFFFF"></path><path d="M422.37,356.84H409.32V344.93H397.4V331.88h11.92V320h13.05v11.92h11.92v13.05H422.37Zm-11.05-2h9.05V342.93h11.92v-9.05H420.37V322h-9.05v11.92H399.4v9.05h11.92Z" style="fill:#FFFFFF"></path><path d="M122.41,190.68h-9.77v-8.39h-8.4v-9.77h8.4v-8.4h9.77v8.4h8.4v9.77h-8.4Zm-7.77-2h5.77v-8.39h8.4v-5.77h-8.4v-8.4h-5.77v8.4h-8.4v5.77h8.4Z" style="fill:#FFFFFF"></path><path d="M416.1,72.24h-9.78V63.86h-8.39V54.08h8.39v-8.4h9.78v8.4h8.39v9.78H416.1Zm-7.78-2h5.78V61.86h8.39V56.08H414.1v-8.4h-5.78v8.4h-8.39v5.78h8.39Z" style="fill:#FFFFFF"></path></g><g id="freepik--Comb--inject-12"><rect x="104.82" y="86.09" width="109.16" height="10.83" transform="translate(-9.87 163.12) rotate(-52.79)" style="fill:#FFFFFF"></rect><path d="M145.37,146.17h0a.77.77,0,0,1-1,.17l-13-8.9,1.88-2.47,12.07,10.15A.76.76,0,0,1,145.37,146.17Z" style="fill:#FFFFFF"></path><path d="M148.52,142h0a.77.77,0,0,1-1,.16l-13-8.89,1.88-2.47L148.4,141A.77.77,0,0,1,148.52,142Z" style="fill:#FFFFFF"></path><path d="M151.66,137.88h0a.76.76,0,0,1-1,.17l-13-8.89,1.87-2.47,12.07,10.14A.77.77,0,0,1,151.66,137.88Z" style="fill:#FFFFFF"></path><path d="M154.81,133.74h0a.77.77,0,0,1-1,.17l-13-8.9,1.88-2.47,12.06,10.15A.76.76,0,0,1,154.81,133.74Z" style="fill:#FFFFFF"></path><path d="M158,129.6h0a.78.78,0,0,1-1.05.16l-13-8.89,1.87-2.47,12.07,10.15A.78.78,0,0,1,158,129.6Z" style="fill:#FFFFFF"></path><path d="M161.1,125.45h0a.76.76,0,0,1-1,.17l-13-8.89,1.88-2.47L161,124.4A.77.77,0,0,1,161.1,125.45Z" style="fill:#FFFFFF"></path><path d="M164.25,121.31h0a.77.77,0,0,1-1,.17l-13-8.9,1.88-2.47,12.06,10.15A.78.78,0,0,1,164.25,121.31Z" style="fill:#FFFFFF"></path><path d="M167.39,117.17h0a.77.77,0,0,1-1,.17l-13-8.9,1.87-2.47,12.07,10.15A.76.76,0,0,1,167.39,117.17Z" style="fill:#FFFFFF"></path><path d="M170.54,113h0a.76.76,0,0,1-1,.17l-13-8.89,1.88-2.47L170.42,112A.76.76,0,0,1,170.54,113Z" style="fill:#FFFFFF"></path><path d="M173.69,108.88h0a.78.78,0,0,1-1.05.17l-13-8.9,1.87-2.47,12.07,10.15A.78.78,0,0,1,173.69,108.88Z" style="fill:#FFFFFF"></path><path d="M176.83,104.74h0a.77.77,0,0,1-1,.17l-13-8.9,1.88-2.47,12.06,10.15A.76.76,0,0,1,176.83,104.74Z" style="fill:#FFFFFF"></path><path d="M180,100.59h0a.76.76,0,0,1-1,.17l-13-8.89,1.88-2.47,12.06,10.14A.78.78,0,0,1,180,100.59Z" style="fill:#FFFFFF"></path><path d="M183.12,96.45h0a.77.77,0,0,1-1,.17l-13-8.9,1.87-2.47L183,95.4A.76.76,0,0,1,183.12,96.45Z" style="fill:#FFFFFF"></path><path d="M186.27,92.31h0a.77.77,0,0,1-1,.17l-13-8.9,1.88-2.47,12.06,10.15A.77.77,0,0,1,186.27,92.31Z" style="fill:#FFFFFF"></path><path d="M189.42,88.16h0a.77.77,0,0,1-1,.17l-13-8.89L177.23,77,189.3,87.11A.78.78,0,0,1,189.42,88.16Z" style="fill:#FFFFFF"></path><path d="M192.56,84h0a.77.77,0,0,1-1,.17l-13-8.9,1.88-2.47L192.44,83A.76.76,0,0,1,192.56,84Z" style="fill:#FFFFFF"></path><path d="M195.71,79.88h0a.77.77,0,0,1-1,.17l-13-8.9,1.88-2.47,12.06,10.15A.78.78,0,0,1,195.71,79.88Z" style="fill:#FFFFFF"></path><path d="M198.85,75.73h0a.76.76,0,0,1-1,.17L184.8,67l1.87-2.47,12.07,10.14A.77.77,0,0,1,198.85,75.73Z" style="fill:#FFFFFF"></path><path d="M202,71.59h0a.77.77,0,0,1-1,.17l-13-8.9,1.88-2.47,12.06,10.15A.77.77,0,0,1,202,71.59Z" style="fill:#FFFFFF"></path><path d="M205.15,67.45h0a.78.78,0,0,1-1.05.17l-13-8.9L193,56.25,205,66.4A.78.78,0,0,1,205.15,67.45Z" style="fill:#FFFFFF"></path><path d="M208.29,63.3h0a.76.76,0,0,1-1,.17l-13-8.89,1.88-2.47,12.06,10.14A.76.76,0,0,1,208.29,63.3Z" style="fill:#FFFFFF"></path><polygon points="133.19 134.97 136.7 137.92 135.16 140.07 131.31 137.44 133.19 134.97" style="opacity:0.1"></polygon><polygon points="136.34 130.83 139.74 133.69 138.19 135.85 134.46 133.3 136.34 130.83" style="opacity:0.1"></polygon><polygon points="139.49 126.68 142.78 129.46 141.23 131.63 137.61 129.15 139.49 126.68" style="opacity:0.1"></polygon><polygon points="142.63 122.54 145.82 125.22 144.26 127.41 140.75 125.01 142.63 122.54" style="opacity:0.1"></polygon><polygon points="145.77 118.4 148.85 120.99 147.29 123.19 143.9 120.87 145.77 118.4" style="opacity:0.1"></polygon><polygon points="148.92 114.25 151.91 116.76 150.32 118.96 147.04 116.72 148.92 114.25" style="opacity:0.1"></polygon><polygon points="152.07 110.11 154.94 112.53 153.35 114.75 150.19 112.58 152.07 110.11" style="opacity:0.1"></polygon><polygon points="155.22 105.97 157.98 108.29 156.38 110.52 153.33 108.44 155.22 105.97" style="opacity:0.1"></polygon><polygon points="158.35 101.82 161.02 104.06 159.42 106.3 156.48 104.29 158.35 101.82" style="opacity:0.1"></polygon><polygon points="161.5 97.68 164.06 99.83 162.45 102.08 159.63 100.15 161.5 97.68" style="opacity:0.1"></polygon><polygon points="164.65 93.54 167.1 95.61 165.48 97.86 162.78 96.01 164.65 93.54" style="opacity:0.1"></polygon><polygon points="167.8 89.39 170.14 91.36 168.51 93.64 165.92 91.86 167.8 89.39" style="opacity:0.1"></polygon><polygon points="170.94 85.25 173.18 87.14 171.54 89.42 169.06 87.72 170.94 85.25" style="opacity:0.1"></polygon><polygon points="174.09 81.11 176.22 82.91 174.57 85.2 172.21 83.58 174.09 81.11" style="opacity:0.1"></polygon><polygon points="177.24 76.96 179.26 78.67 177.61 80.97 175.36 79.44 177.24 76.96" style="opacity:0.1"></polygon><polygon points="180.38 72.82 182.3 74.43 180.64 76.75 178.5 75.3 180.38 72.82" style="opacity:0.1"></polygon><polygon points="183.52 68.68 185.34 70.21 183.67 72.54 181.65 71.16 183.52 68.68" style="opacity:0.1"></polygon><polygon points="186.67 64.53 188.38 65.98 186.7 68.31 184.8 67 186.67 64.53" style="opacity:0.1"></polygon><polygon points="189.82 60.39 191.43 61.74 189.73 64.09 187.94 62.87 189.82 60.39" style="opacity:0.1"></polygon><polygon points="192.97 56.25 194.47 57.51 192.76 59.87 191.08 58.73 192.97 56.25" style="opacity:0.1"></polygon><polygon points="197.51 53.28 195.79 55.65 194.23 54.58 196.11 52.1 197.51 53.28" style="opacity:0.1"></polygon></g><g id="freepik--Scissors--inject-12"><path d="M214.78,67.5c-1,7.32,5.33,11.66,6,12.08a1.89,1.89,0,0,1,.46,2.68l-6,8.32-48.59,41.88L154.54,144l62.89-45.87.44-4.16s10.3-11,14.56-14.23S242.71,72,243.51,64.85A11,11,0,0,0,232,52.56C225.37,53,215.89,59.47,214.78,67.5Zm25.4-9.12c4.19,6.25-2.56,13.75-5.94,15.89s-11.87,5.8-15.74-1.4c-2.2-4.11-.44-10.29,4.65-14.16C228,55.05,236,52.12,240.18,58.38Z" style="fill:#37474f"></path><path d="M262.11,91.21A10.94,10.94,0,0,0,253,77c-7.14-1-12.91,3.79-17.12,7.12s-17.35,10.64-17.35,10.64l-4.14-.58L154.57,144l14.12-8.93,52.46-36.91,9.54-3.81a1.89,1.89,0,0,1,2.49,1.1c.24.77,2.9,8,10.25,8.78C251.49,105.12,260.12,97.52,262.11,91.21ZM254,98.27c-5,4-11.43,4.19-14.87,1.06-6-5.51-.41-12.85,2.48-15.61s11.82-7.48,16.86-1.89S258.72,94.5,254,98.27Z" style="fill:#455a64"></path><path d="M214.55,100.24a1.27,1.27,0,0,1-2.06-1.49,1.27,1.27,0,1,1,2.06,1.49Z" style="fill:#263238"></path></g><g id="freepik--hair-dryer--inject-12"><polygon points="402.46 264.8 398.66 261.94 402.57 251.59 407.32 251.96 402.46 264.8" style="fill:#37474f"></polygon><polygon points="407.53 251.17 403.57 248.74 406.11 242.03 410.69 242.83 407.53 251.17" style="fill:#263238"></polygon><polygon points="414.88 224.21 391.72 286.44 401.16 290.81 413.26 279.02 439.3 235.5 414.88 224.21" style="fill:#FFFFFF"></polygon><polygon points="391.72 286.44 399.93 264.38 417.24 272.38 413.26 279.02 401.16 290.81 391.72 286.44" style="opacity:0.1"></polygon><polygon points="401.16 290.81 432.32 232.27 439.3 235.5 413.26 279.02 401.16 290.81" style="opacity:0.1"></polygon><polygon points="423.34 215.45 358.74 178.25 369.83 154.26 440.02 179.38 423.34 215.45" style="fill:#FFFFFF"></polygon><polygon points="369.83 154.26 376.95 156.81 365.29 182.02 358.74 178.25 369.83 154.26" style="opacity:0.1"></polygon><rect x="460.64" y="204.2" width="7.04" height="29.22" transform="translate(134.68 -174.59) rotate(24.81)" style="fill:#FFFFFF"></rect><circle cx="437.83" cy="206.64" r="29.67" transform="translate(-27.14 71.73) rotate(-9.09)" style="fill:#FFFFFF"></circle><circle cx="437.83" cy="206.64" r="20.04" style="opacity:0.1"></circle><path d="M448.79,211.71a12.08,12.08,0,1,1-5.89-16A12.07,12.07,0,0,1,448.79,211.71Z" style="fill:#FFFFFF"></path><path d="M444.89,192.38c-.64,1.38-1.33,2.43-1.55,2.33s.14-1.3.78-2.69,1.33-2.43,1.54-2.33S445.53,191,444.89,192.38Z" style="opacity:0.1"></path><path d="M439.58,190.82c-.12,1.52-.42,2.74-.65,2.72s-.32-1.27-.19-2.79.42-2.74.65-2.72S439.71,189.3,439.58,190.82Z" style="opacity:0.1"></path><path d="M434.07,191.17c.4,1.48.54,2.72.31,2.78s-.73-1.08-1.13-2.55-.54-2.72-.32-2.78S433.67,189.7,434.07,191.17Z" style="opacity:0.1"></path><path d="M429,193.39c.88,1.25,1.43,2.37,1.24,2.51s-1.06-.77-1.94-2-1.44-2.37-1.24-2.5S428.13,192.14,429,193.39Z" style="opacity:0.1"></path><path d="M425,197.21c1.25.87,2.16,1.73,2,1.92s-1.25-.35-2.51-1.22-2.16-1.74-2-1.93S423.75,196.34,425,197.21Z" style="opacity:0.1"></path><path d="M422.55,202.16c1.48.39,2.63.89,2.57,1.12s-1.31.09-2.78-.3-2.63-.89-2.57-1.11S421.08,201.77,422.55,202.16Z" style="opacity:0.1"></path><path d="M421.94,207.66c1.52-.14,2.77-.06,2.79.17s-1.19.53-2.71.67-2.77.06-2.79-.17S420.42,207.79,421.94,207.66Z" style="opacity:0.1"></path><path d="M423.25,213c1.38-.65,2.58-1,2.68-.8s-.94.92-2.32,1.57-2.58,1-2.68.79S421.87,213.68,423.25,213Z" style="opacity:0.1"></path><path d="M426.31,217.63c1.08-1.09,2.09-1.83,2.25-1.66s-.57,1.17-1.65,2.26-2.08,1.82-2.24,1.66S425.24,218.71,426.31,217.63Z" style="opacity:0.1"></path><path d="M430.76,220.9c.65-1.38,1.34-2.43,1.55-2.33s-.13,1.3-.77,2.69-1.34,2.43-1.55,2.33S430.12,222.29,430.76,220.9Z" style="opacity:0.1"></path><path d="M436.07,222.46c.13-1.52.42-2.74.65-2.72s.32,1.27.19,2.79-.42,2.74-.65,2.72S435.94,224,436.07,222.46Z" style="opacity:0.1"></path><path d="M441.59,222.11c-.4-1.48-.55-2.72-.32-2.78s.73,1.08,1.13,2.55.54,2.72.32,2.78S442,223.58,441.59,222.11Z" style="opacity:0.1"></path><path d="M446.65,219.89c-.88-1.25-1.44-2.37-1.25-2.51s1.06.77,1.94,2,1.44,2.37,1.25,2.5S447.53,221.14,446.65,219.89Z" style="opacity:0.1"></path><path d="M450.65,216.07c-1.26-.87-2.16-1.73-2-1.92s1.26.35,2.51,1.22,2.16,1.74,2,1.93S451.9,216.94,450.65,216.07Z" style="opacity:0.1"></path><path d="M453.1,211.12c-1.48-.39-2.62-.89-2.56-1.12s1.3-.09,2.78.3,2.62.89,2.56,1.11S454.58,211.51,453.1,211.12Z" style="opacity:0.1"></path><path d="M453.71,205.62c-1.52.14-2.77.07-2.79-.17s1.19-.53,2.71-.67,2.77-.06,2.79.17S455.23,205.49,453.71,205.62Z" style="opacity:0.1"></path><path d="M452.41,200.25c-1.39.65-2.59,1-2.69.8s.94-.92,2.32-1.56,2.59-1,2.69-.8S453.79,199.6,452.41,200.25Z" style="opacity:0.1"></path><path d="M449.34,195.65c-1.07,1.09-2.08,1.83-2.25,1.66s.57-1.17,1.65-2.26,2.08-1.82,2.25-1.66S450.42,194.57,449.34,195.65Z" style="opacity:0.1"></path><path d="M408.15,206.7c-1.28-5.12.7-10.72,3.9-14.75-.16.64-.39,1.25-.59,1.86a66,66,0,0,0-3.31,12.89Z" style="opacity:0.1"></path><path d="M467.41,204.21a17.56,17.56,0,0,1-2.65,14.88,83.89,83.89,0,0,0,2.65-14.88Z" style="opacity:0.1"></path><path d="M438.82,236.3a14.19,14.19,0,0,1-12-2.1c4.08.72,7.89,1.4,12,2.1Z" style="opacity:0.1"></path><path d="M414.55,225.06c3.2,2.68,6.19,5.14,9.38,7.78a14.2,14.2,0,0,1-9.38-7.78Z" style="opacity:0.1"></path></g><g id="freepik--nail-clipper--inject-12"><polygon points="95.49 276.16 96.48 276.7 98.05 271.83 97.06 271.29 95.49 276.16" style="fill:#c7c7c7"></polygon><polygon points="93.49 275.05 94.47 275.6 96.04 270.72 95.06 270.18 93.49 275.05" style="fill:#c7c7c7"></polygon><polygon points="91.48 273.94 92.47 274.49 94.04 269.61 93.05 269.07 91.48 273.94" style="fill:#c7c7c7"></polygon><polygon points="89.47 272.83 90.46 273.38 92.03 268.5 91.04 267.96 89.47 272.83" style="fill:#c7c7c7"></polygon><polygon points="87.47 271.73 88.45 272.27 90.02 267.39 89.04 266.85 87.47 271.73" style="fill:#c7c7c7"></polygon><polygon points="85.46 270.62 86.45 271.16 88.02 266.29 87.03 265.74 85.46 270.62" style="fill:#c7c7c7"></polygon><polygon points="83.46 269.51 84.44 270.05 86.01 265.18 85.03 264.63 83.46 269.51" style="fill:#c7c7c7"></polygon><polygon points="84.54 270.11 83.55 269.56 86.84 265.64 87.83 266.18 84.54 270.11" style="fill:#dbdbdb"></polygon><polygon points="86.55 271.21 85.56 270.67 88.85 266.75 89.84 267.29 86.55 271.21" style="fill:#dbdbdb"></polygon><polygon points="88.55 272.32 87.56 271.78 90.86 267.86 91.84 268.4 88.55 272.32" style="fill:#dbdbdb"></polygon><polygon points="90.56 273.43 89.57 272.89 92.86 268.96 93.85 269.51 90.56 273.43" style="fill:#dbdbdb"></polygon><polygon points="92.56 274.54 91.58 274 94.87 270.07 95.86 270.62 92.56 274.54" style="fill:#dbdbdb"></polygon><polygon points="94.57 275.65 93.58 275.1 96.88 271.18 97.86 271.73 94.57 275.65" style="fill:#dbdbdb"></polygon><polygon points="96.58 276.76 95.59 276.21 98.88 272.29 99.87 272.83 96.58 276.76" style="fill:#dbdbdb"></polygon><polygon points="92.56 243.93 100.62 248.38 98.13 252.88 90 260.05 58.75 308.88 46.42 302.07 77.33 256.06 92.56 243.93" style="fill:#FFFFFF"></polygon><polygon points="114.02 255.78 105.96 251.33 103.47 255.83 101.73 266.53 77.01 318.97 89.35 325.79 111.84 275.13 114.02 255.78" style="fill:#FFFFFF"></polygon><polygon points="113.78 247 109 244.36 107.76 252.32 112.54 254.97 113.78 247" style="fill:#c7c7c7"></polygon><path d="M122.42,231.39l4.17-7.55a.56.56,0,0,0,.06-.44l-1.48-6.09a.62.62,0,0,0-.3-.39l-3.37-2.16a.61.61,0,0,0-.83.23h0a.63.63,0,0,0,.15.78L123,218a.6.6,0,0,1,.22.52l-.31,4.62a.62.62,0,0,1-.18.38l-2.93,3a.59.59,0,0,1-.32.17l-4,.82Z" style="fill:#c7c7c7"></path><polygon points="100.38 239.6 105.16 242.24 99.08 247.53 94.3 244.88 100.38 239.6" style="fill:#dbdbdb"></polygon><rect x="103.73" y="226.57" width="15.34" height="17.84" transform="translate(127.79 -24.5) rotate(28.92)" style="fill:#dbdbdb"></rect><path d="M109,224l4.17-7.56a.63.63,0,0,1,.34-.28l5.95-2a.6.6,0,0,1,.49,0l3.62,1.7a.61.61,0,0,1,.24.83h0a.61.61,0,0,1-.74.28l-3.07-.65a.61.61,0,0,0-.57.08l-3.74,2.73a.56.56,0,0,0-.23.35l-1,4.09a.64.64,0,0,0,0,.36l1.45,3.85Z" style="fill:#dbdbdb"></path><path d="M114.79,234.51a3.53,3.53,0,1,1-4.37-2.42A3.54,3.54,0,0,1,114.79,234.51Z" style="fill:#c7c7c7"></path><rect x="107.88" y="234.81" width="7.02" height="1.37" transform="matrix(0.96, -0.28, 0.28, 0.96, -60.86, 40.06)" style="fill:#dbdbdb"></rect></g><g id="freepik--Dog--inject-12"><path d="M313.42,264.2s12.77,25.13,13,47.11.3,78.42-19,93.13-99,23.21-122.91,7.5-36.44-51-32.25-74.66,30.84-45.23,41.7-55.91,17.77-19.68,19.65-24.92Z" style="fill:#FFFFFF"></path><g style="opacity:0.5"><path d="M313.42,264.2s12.77,25.13,13,47.11.3,78.42-19,93.13-99,23.21-122.91,7.5-36.44-51-32.25-74.66,30.84-45.23,41.7-55.91,17.77-19.68,19.65-24.92Z" style="fill:#fff"></path></g><path d="M193.65,275.51c1.92-1.51,3.86-2.83,5.77-4.17s3.78-2.66,5.47-4.08a25.49,25.49,0,0,0,4.42-4.92c1.35-1.84,2.57-3.83,3.86-5.89a19.38,19.38,0,0,1-1.84,7.06,17.36,17.36,0,0,1-4.5,6,25.88,25.88,0,0,1-6.24,3.86A26.28,26.28,0,0,1,193.65,275.51Z" style="fill:#FFFFFF"></path><path d="M183.66,295.82c-2,1.43-4,2.66-5.94,3.92s-3.9,2.48-5.65,3.84a25.6,25.6,0,0,0-4.63,4.72c-1.43,1.78-2.73,3.71-4.11,5.71a19.42,19.42,0,0,1,2.15-7,17.26,17.26,0,0,1,4.75-5.82,26.09,26.09,0,0,1,6.41-3.6A26.37,26.37,0,0,1,183.66,295.82Z" style="fill:#FFFFFF"></path><path d="M168.69,295.21c2-.76,3.95-1.34,5.88-1.91s3.8-1.13,5.55-1.82a25.79,25.79,0,0,0,5-2.77c1.64-1.11,3.25-2.33,5-3.57a17.53,17.53,0,0,1-3.47,5.31,15.72,15.72,0,0,1-5.33,3.79,20.39,20.39,0,0,1-6.25,1.43A20,20,0,0,1,168.69,295.21Z" style="fill:#FFFFFF"></path><path d="M298.21,117.34c4.47-4.66,20.1,2.82,38.13-4.9s26.11-28.19,46.1-34.78c22.67-7.47,43.31,39.65,27.56,59.25-16.87,21-57.64,22.23-80,18C311.12,151.38,291.77,124,298.21,117.34Z" style="fill:#FFFFFF"></path><g style="opacity:0.5"><path d="M298.21,117.34c4.47-4.66,20.1,2.82,38.13-4.9s26.11-28.19,46.1-34.78c22.67-7.47,43.31,39.65,27.56,59.25-16.87,21-57.64,22.23-80,18C311.12,151.38,291.77,124,298.21,117.34Z" style="fill:#fff"></path></g><path d="M410,136.91c-16.87,21-57.64,22.23-80,18a29.83,29.83,0,0,1-7.93-2.79h0c16.94,4.08,65.15-5.12,78.58-19.95,8.31-9.18,11.85-30.25,6.26-41.83C415.92,104.22,419.29,125.35,410,136.91Z" style="fill:#FFFFFF;opacity:0.4"></path><path d="M401.53,80.36a33.27,33.27,0,0,0-7.46-1.43,40.18,40.18,0,0,0-7.36.13c-1.21.19-2.43.32-3.64.61s-2.41.56-3.64.85c-.62.13-1.21.35-1.81.53l-1.84.53c-1.23.4-2.43.85-3.74,1.17a35.4,35.4,0,0,1,3.09-2.49,33.07,33.07,0,0,1,3.49-2,24.44,24.44,0,0,1,3.78-1.41,26.37,26.37,0,0,1,4-.82,22.77,22.77,0,0,1,8.1.54A15.54,15.54,0,0,1,401.53,80.36Z" style="fill:#FFFFFF"></path><path d="M414.29,100.75a31.28,31.28,0,0,0-7.68-11.37c-.87-.72-1.67-1.52-2.61-2.17-.46-.34-.88-.73-1.37-1s-1-.64-1.43-1-1-.63-1.48-.94l-1.51-.94c-1-.6-2.09-1.14-3.13-1.86a30.93,30.93,0,0,1,3.68.49,28.15,28.15,0,0,1,3.54,1.16,20.49,20.49,0,0,1,3.34,1.76,23.09,23.09,0,0,1,3,2.32,19.48,19.48,0,0,1,4.4,6.2A13.89,13.89,0,0,1,414.29,100.75Z" style="fill:#FFFFFF"></path><path d="M181.58,146.4C159.39,159,124.84,242.81,140,259.83s49.21,16.17,61.66,4.68,14.7-95.37,10.12-107.81C207.44,145,190.34,141.43,181.58,146.4Z" style="fill:#FFFFFF"></path><path d="M181.58,146.4C159.39,159,124.84,242.81,140,259.83s49.21,16.17,61.66,4.68,14.7-95.37,10.12-107.81C207.44,145,190.34,141.43,181.58,146.4Z" style="fill:#fff;opacity:0.5"></path><path d="M201.63,264.51C189.18,276,155.1,276.85,140,259.83a11.39,11.39,0,0,1-1.77-2.75c9.55,8.7,37.35,10.23,51.37,0s22.18-54,24.25-80.85v-.05C214.65,205.41,211.08,255.79,201.63,264.51Z" style="fill:#FFFFFF;opacity:0.4"></path><path d="M154,260.74a32.89,32.89,0,0,0,5.35,5.39,39.49,39.49,0,0,0,6.14,4.05c1.11.53,2.19,1.11,3.35,1.55s2.31.91,3.48,1.35c.59.25,1.2.4,1.8.6l1.82.6c1.23.36,2.48.67,3.75,1.14a32.85,32.85,0,0,1-4,.31,33.44,33.44,0,0,1-4-.36,24.28,24.28,0,0,1-3.91-1,26.45,26.45,0,0,1-3.74-1.57,22.87,22.87,0,0,1-6.38-5A15.58,15.58,0,0,1,154,260.74Z" style="fill:#FFFFFF"></path><path d="M136.26,248.76a28.07,28.07,0,0,0,3.79,7.08,36.54,36.54,0,0,0,5.24,5.8l1.47,1.3c.51.42,1.05.8,1.56,1.21,1,.86,2.16,1.53,3.23,2.34l3.4,2.21c1.17.7,2.36,1.39,3.52,2.21-1.38-.2-2.75-.53-4.12-.86-1.31-.48-2.67-.91-3.95-1.5a30.09,30.09,0,0,1-3.72-2.07c-.59-.4-1.19-.8-1.76-1.22l-1.65-1.39a23.41,23.41,0,0,1-5.24-6.82A15.48,15.48,0,0,1,136.26,248.76Z" style="fill:#FFFFFF"></path><path d="M315.61,268.94s30.39,21,33.15,41.95S336,343.14,326.39,340s-23.66-23.87-23.66-23.87a10.34,10.34,0,0,1-10.26,7.33c-8.38,0-13.58-6.49-13.63-20,0-8.79,9.54-19.6,24.73-18.22a78,78,0,0,1,19.5,4.6Z" style="fill:#FFFFFF"></path><path d="M315.61,268.94s30.39,21,33.15,41.95S336,343.14,326.39,340s-23.66-23.87-23.66-23.87a10.34,10.34,0,0,1-10.26,7.33c-8.38,0-13.58-6.49-13.63-20,0-8.79,9.54-19.6,24.73-18.22a78,78,0,0,1,19.5,4.6Z" style="fill:#fff;opacity:0.5"></path><path d="M326.39,340c-9.63-3.14-23.66-23.87-23.66-23.87a10.34,10.34,0,0,1-10.26,7.33c-7.56,0-12.53-5.28-13.47-16.23,1.05,3.63,6,12.55,13.88,11.67s12-9.65,12-9.65,14.9,21.54,27.06,20.13c10.72-1.25,17.38-11.78,15.59-23.64a28.05,28.05,0,0,1,1.21,5.15C351.52,331.83,336,343.14,326.39,340Z" style="fill:#FFFFFF;opacity:0.4"></path><path d="M305.21,307.46a36.64,36.64,0,0,1-1.45,7.51,21.49,21.49,0,0,1-1.46,3.61,10.21,10.21,0,0,1-2.48,3.2,13.42,13.42,0,0,1-7.62,2.55,11.69,11.69,0,0,1-7.82-2.5,13.58,13.58,0,0,1-2.62-3.23,26.25,26.25,0,0,1-1.81-3.54,34,34,0,0,1-2.29-7.58,19.53,19.53,0,0,1,.19-8.15,17.72,17.72,0,0,1,4-7.18,24.46,24.46,0,0,1,6.34-5,27,27,0,0,1,7.47-2.83,27.33,27.33,0,0,1,7.95-.46,47.19,47.19,0,0,1,7.69,1.22,66.16,66.16,0,0,1,14.45,5.29,48.62,48.62,0,0,1,12.52,8.73,57.3,57.3,0,0,0-13.12-7.42,74,74,0,0,0-14.34-4.33,52.47,52.47,0,0,0-7.35-.89,24.81,24.81,0,0,0-7.17.61,24.11,24.11,0,0,0-12.21,7,14.82,14.82,0,0,0-3.4,6,17,17,0,0,0-.2,6.94,31.52,31.52,0,0,0,1.9,7,25.11,25.11,0,0,0,1.55,3.27,11.82,11.82,0,0,0,2,2.76,9.89,9.89,0,0,0,6.27,2.28,11.8,11.8,0,0,0,6.72-1.77,9,9,0,0,0,2.36-2.6,22.73,22.73,0,0,0,1.68-3.3A42.66,42.66,0,0,0,305.21,307.46Z" style="fill:#FFFFFF"></path><path d="M302.73,316.13c1.86,2.49,3.72,5,5.71,7.34s4,4.73,6.12,6.95a49.89,49.89,0,0,0,6.82,6.05,18.44,18.44,0,0,0,3.84,2.14,13.81,13.81,0,0,0,4.25.8,14.66,14.66,0,0,0,8.37-2,17.36,17.36,0,0,0,6.11-6.28,23.93,23.93,0,0,0,3-8.49,36.11,36.11,0,0,0-.07-9.23,31.62,31.62,0,0,1,1,9.31,19.81,19.81,0,0,1-.83,4.7,25.17,25.17,0,0,1-1.76,4.44,18,18,0,0,1-6.47,7.16,16.35,16.35,0,0,1-9.44,2.37,16.16,16.16,0,0,1-4.85-1,18.78,18.78,0,0,1-4.24-2.43,44.8,44.8,0,0,1-6.87-6.53A91.77,91.77,0,0,1,302.73,316.13Z" style="fill:#FFFFFF"></path><path d="M315.61,268.94a39.77,39.77,0,0,1,2.6,5q1.14,2.53,2.07,5.16t1.66,5.3a38.3,38.3,0,0,1,1.13,5.48,39.26,39.26,0,0,1-2.6-5c-.76-1.7-1.46-3.41-2.07-5.15s-1.17-3.5-1.65-5.29A39.88,39.88,0,0,1,315.61,268.94Z" style="fill:#FFFFFF"></path><path d="M315.61,268.94a74.22,74.22,0,0,1,13.49,9.49,76.32,76.32,0,0,1,11.24,12.17,67,67,0,0,1,4.44,7.06,51.76,51.76,0,0,1,3.3,7.65,42.77,42.77,0,0,1,1.87,8.11,40.74,40.74,0,0,1,.11,8.26,50.89,50.89,0,0,0-1.08-8.1,52,52,0,0,0-2.36-7.74,64.57,64.57,0,0,0-7.89-14.06A97.48,97.48,0,0,0,328,279.57c-2-1.89-4-3.73-6-5.5S317.81,270.58,315.61,268.94Z" style="fill:#FFFFFF"></path><path d="M192.4,312.33S207.06,337,223.77,339s30.55-4,35.81-4.25,7.05,2.7,14.43,1.44c9.39-1.6,6.74-17,1.55-22.47s-19.56-6.24-22-7.63-8.94-7.7-12.22-14.52C240.48,289.87,187.06,297.05,192.4,312.33Z" style="fill:#FFFFFF"></path><path d="M192.4,312.33S207.06,337,223.77,339s30.55-4,35.81-4.25,7.05,2.7,14.43,1.44c9.39-1.6,6.74-17,1.55-22.47s-19.56-6.24-22-7.63-8.94-7.7-12.22-14.52C240.48,289.87,187.06,297.05,192.4,312.33Z" style="fill:#fff;opacity:0.5"></path><path d="M274,336.2c-7.38,1.26-9.16-1.71-14.43-1.44S240.47,341,223.77,339c-12.23-1.47-23.36-15.08-28.45-22.27.55.36,18.09,12.08,29,13.47,11,1.41,31.92-3.16,34.08-3.49s8.24,6.57,15.68,5.32c6.33-1.07,6.13-6.63,5.94-8.25C280.9,329.48,279.56,335.25,274,336.2Z" style="fill:#FFFFFF;opacity:0.4"></path><path d="M190.35,310c2.37,3.06,4.75,6,7.21,8.88.63.71,1.27,1.4,1.87,2.13s1.28,1.38,1.91,2.08,1.29,1.37,1.94,2,1.3,1.36,2,2a97.44,97.44,0,0,0,8.43,7.42c.75.57,1.51,1.12,2.25,1.71s1.55,1.07,2.33,1.61l1.16.83,1.22.75c.81.5,1.62,1,2.43,1.57-.93-.25-1.86-.53-2.79-.82l-1.39-.46-1.34-.58c-.88-.4-1.78-.8-2.65-1.23s-1.69-1-2.54-1.45a50.26,50.26,0,0,1-9.21-7.21c-.71-.68-1.37-1.4-2-2.12s-1.34-1.41-1.93-2.18c-1.23-1.51-2.43-3.05-3.51-4.66A45.87,45.87,0,0,1,190.35,310Z" style="fill:#FFFFFF"></path><path d="M218,334.8a14.21,14.21,0,0,0,3,1.86,19.41,19.41,0,0,0,3.29,1.22,22.62,22.62,0,0,0,6.89.8,46,46,0,0,0,6.94-.87c2.32-.43,4.64-.87,7-1.38l6.95-1.52c2.34-.5,4.59-1,7-1.51a6.13,6.13,0,0,1,1.12-.1,7.16,7.16,0,0,1,1.07.08c.68.1,1.29.24,1.88.38,1.19.28,2.31.58,3.43.8a17.49,17.49,0,0,0,6.54.29,13.87,13.87,0,0,0,1.55-.35,4.31,4.31,0,0,0,1.21-.56,5.81,5.81,0,0,0,1.86-2.11,12.7,12.7,0,0,0,1.25-6.18,16.91,16.91,0,0,0-5-11.82,17.27,17.27,0,0,0-5.81-3.24,35.59,35.59,0,0,0-6.76-1.6,73.33,73.33,0,0,0-14.15-.58,58.47,58.47,0,0,1,14.31-.89,36.46,36.46,0,0,1,7.2,1.2,18.65,18.65,0,0,1,6.74,3.33,16.87,16.87,0,0,1,4.55,6.12,20.45,20.45,0,0,1,1.79,7.39,15,15,0,0,1-1.51,7.65,8.69,8.69,0,0,1-2.79,3.2,7.55,7.55,0,0,1-2,.95,15.74,15.74,0,0,1-1.92.45,20.42,20.42,0,0,1-7.62-.38c-1.21-.26-2.38-.58-3.51-.86a15.52,15.52,0,0,0-1.61-.34c-.25,0-.49-.06-.7-.08a3.22,3.22,0,0,0-.65.05c-4.56.76-9.3,1.79-14,2.52-2.36.38-4.72.76-7.1,1a46,46,0,0,1-7.25.4,22.79,22.79,0,0,1-7.13-1.48A16.59,16.59,0,0,1,218,334.8Z" style="fill:#FFFFFF"></path><path d="M257,307.4a19,19,0,0,1-6-2.56,25,25,0,0,1-5-4.16,21.92,21.92,0,0,1-3.73-5.41,15.94,15.94,0,0,1-1.65-6.32c1.3,1.78,2.36,3.51,3.66,5.09s2.53,3.14,3.92,4.6,2.79,2.92,4.27,4.35Z" style="fill:#FFFFFF"></path><path d="M339.65,260.05c-28.76,23-64.33,25-74.67,25s-45.92-2-74.67-25c-27-21.57-23.71-63.31-10.59-96.61s61-46.62,85.26-46.62,72.15,13.32,85.27,46.62S366.66,238.48,339.65,260.05Z" style="fill:#FFFFFF"></path><path d="M339.65,260.05c-28.76,23-64.33,25-74.67,25s-45.92-2-74.67-25c-27-21.57-23.71-63.31-10.59-96.61s61-46.62,85.26-46.62,72.15,13.32,85.27,46.62S366.66,238.48,339.65,260.05Z" style="fill:#fff;opacity:0.5"></path><path d="M273.5,217.61c-1.74,8-4.48,13.17-7.94,13.17s-6.21-5.18-7.95-13.17c0,0,7.11-5.77,7.95-12.58C266.39,211.84,273.5,217.61,273.5,217.61Z" style="fill:#263238"></path><path d="M271.93,223.26c-1.66,4.7-3.82,7.52-6.37,7.52s-4.73-2.82-6.38-7.52a9.73,9.73,0,0,1,12.75,0Z" style="fill:#ff9bbc"></path><path d="M201.53,132.19a38.68,38.68,0,0,1,9.38-8.17,35.67,35.67,0,0,1,5.63-2.91,30.16,30.16,0,0,1,6.18-1.72,52.51,52.51,0,0,1,12.51-.36,61.65,61.65,0,0,1,12.22,2.11c-4.14.09-8.22.11-12.27.23a94.42,94.42,0,0,0-12,1,29.24,29.24,0,0,0-5.67,1.42,46.37,46.37,0,0,0-5.48,2.29A93.36,93.36,0,0,0,201.53,132.19Z" style="fill:#FFFFFF"></path><path d="M189.25,263.2a38.62,38.62,0,0,1-8.95-8.64,35.09,35.09,0,0,1-3.39-5.35,30,30,0,0,1-2.25-6,53.15,53.15,0,0,1-1.45-12.43,61.5,61.5,0,0,1,1-12.35c.46,4.11.82,8.17,1.3,12.2a95,95,0,0,0,2,11.84,30.64,30.64,0,0,0,1.91,5.53,46.29,46.29,0,0,0,2.76,5.26A92,92,0,0,0,189.25,263.2Z" style="fill:#FFFFFF"></path><path d="M176.48,157.2A68.18,68.18,0,0,1,184.15,147a58.11,58.11,0,0,1,9.5-8.73,39.89,39.89,0,0,1,5.64-3.27,58,58,0,0,1,6-2.49,61,61,0,0,1,12.39-3.14c-3.87,1.78-7.72,3.49-11.48,5.3-1.88.93-3.75,1.82-5.55,2.85a53,53,0,0,0-5.23,3.21,56.22,56.22,0,0,0-4.86,3.79c-1.61,1.31-3.14,2.73-4.71,4.12Z" style="fill:#FFFFFF"></path><path d="M165.43,199.15a56.58,56.58,0,0,1,2.33-12.23c.57-2,1.27-4,2-5.91.35-1,.78-1.93,1.2-2.88s.82-1.92,1.29-2.85a63,63,0,0,1,6.52-10.68,45.5,45.5,0,0,1,8.75-8.89c-2.4,3.41-4.75,6.7-6.81,10.2s-4,7-5.76,10.68c-.48.89-.89,1.82-1.32,2.74s-.85,1.84-1.26,2.77c-.86,1.84-1.6,3.73-2.42,5.6C168.4,191.47,166.91,195.27,165.43,199.15Z" style="fill:#FFFFFF"></path><path d="M167.47,226.15a38.54,38.54,0,0,1-.27-12.59A55.82,55.82,0,0,1,175.91,190a52.05,52.05,0,0,1,3.73-5.1,62.21,62.21,0,0,1,4.32-4.57c-1,1.88-2.13,3.59-3.11,5.41s-2,3.57-2.91,5.43l-1.37,2.73-1.25,2.79c-.44.92-.81,1.87-1.18,2.81s-.8,1.87-1.11,2.84l-1,2.86-.9,2.92C170.48,210,170,212,169.5,214A90.38,90.38,0,0,0,167.47,226.15Z" style="fill:#FFFFFF"></path><path d="M220.81,277.85a24.18,24.18,0,0,1-10-2.27,37.14,37.14,0,0,1-8.79-5.46l-1.94-1.72c-.65-.56-1.21-1.22-1.82-1.83a37.54,37.54,0,0,1-3.29-4,50.24,50.24,0,0,1-2.8-4.3c-.8-1.51-1.55-3-2.2-4.61,1.21,1.21,2.28,2.51,3.39,3.75l1.71,1.83c.56.61,1.08,1.25,1.69,1.82,1.18,1.15,2.29,2.37,3.52,3.45s2.42,2.19,3.65,3.27a72.08,72.08,0,0,0,7.94,5.69A51.33,51.33,0,0,0,220.81,277.85Z" style="fill:#FFFFFF"></path><path d="M328.43,132.19a94.25,94.25,0,0,0-10.52-6.13,46.37,46.37,0,0,0-5.48-2.29,29.34,29.34,0,0,0-5.68-1.42,94.11,94.11,0,0,0-12-1c-4-.12-8.13-.14-12.27-.23A61.68,61.68,0,0,1,294.72,119a52.58,52.58,0,0,1,12.52.36,30.16,30.16,0,0,1,6.18,1.72,36.11,36.11,0,0,1,5.63,2.91A38.86,38.86,0,0,1,328.43,132.19Z" style="fill:#FFFFFF"></path><path d="M340.71,263.2a92,92,0,0,0,7-9.95,46.29,46.29,0,0,0,2.76-5.26,30.64,30.64,0,0,0,1.91-5.53,96.85,96.85,0,0,0,2-11.84c.48-4,.84-8.09,1.29-12.2a60.79,60.79,0,0,1,1.05,12.35,53.15,53.15,0,0,1-1.45,12.43,30,30,0,0,1-2.25,6,35.09,35.09,0,0,1-3.39,5.35A38.82,38.82,0,0,1,340.71,263.2Z" style="fill:#FFFFFF"></path><path d="M353.48,157.2l-9.32-8.58c-1.57-1.39-3.1-2.81-4.71-4.12a56.22,56.22,0,0,0-4.86-3.79,53,53,0,0,0-5.23-3.21c-1.8-1-3.67-1.92-5.55-2.85-3.76-1.81-7.61-3.52-11.48-5.3a61.19,61.19,0,0,1,12.39,3.14,56.94,56.94,0,0,1,5.94,2.49,39.44,39.44,0,0,1,5.65,3.27,58.52,58.52,0,0,1,9.5,8.73A68.87,68.87,0,0,1,353.48,157.2Z" style="fill:#FFFFFF"></path><path d="M364.53,199.15c-1.49-3.88-3-7.68-4.53-11.45-.82-1.87-1.56-3.76-2.42-5.6-.41-.93-.82-1.86-1.26-2.77s-.84-1.85-1.32-2.74c-1.74-3.66-3.7-7.19-5.76-10.68s-4.42-6.79-6.81-10.2a45.5,45.5,0,0,1,8.75,8.89,63,63,0,0,1,6.52,10.68c.47.93.87,1.9,1.29,2.85s.85,1.9,1.2,2.88c.74,2,1.44,3.91,2,5.91A56.58,56.58,0,0,1,364.53,199.15Z" style="fill:#FFFFFF"></path><path d="M362.49,226.15a90.38,90.38,0,0,0-2-12.19c-.48-2-1-4-1.59-5.89l-.9-2.92-1-2.86c-.31-1-.75-1.89-1.11-2.84s-.74-1.89-1.18-2.81l-1.25-2.79L352,191.12c-.87-1.86-1.94-3.61-2.91-5.43s-2.14-3.53-3.11-5.41a62.21,62.21,0,0,1,4.32,4.57A50.37,50.37,0,0,1,354,190a55.82,55.82,0,0,1,8.71,23.61A38.54,38.54,0,0,1,362.49,226.15Z" style="fill:#FFFFFF"></path><path d="M309.15,277.85a50.89,50.89,0,0,0,8.93-4.34,71.27,71.27,0,0,0,7.95-5.69c1.23-1.08,2.49-2.11,3.65-3.27s2.33-2.3,3.52-3.45c.61-.57,1.13-1.21,1.69-1.82l1.71-1.83c1.11-1.24,2.17-2.54,3.39-3.75-.65,1.57-1.4,3.1-2.2,4.61a50.24,50.24,0,0,1-2.8,4.3,38.91,38.91,0,0,1-3.3,4c-.6.61-1.16,1.27-1.81,1.83l-1.94,1.72a37.34,37.34,0,0,1-8.79,5.46A24.18,24.18,0,0,1,309.15,277.85Z" style="fill:#FFFFFF"></path><path d="M233.58,117.06a29.94,29.94,0,0,1,7.81-2.79,37.43,37.43,0,0,1,8.34-.87,42.68,42.68,0,0,1,8.37,1,49.93,49.93,0,0,1,8,2.51l-1-.06c2.66-.75,5.29-1.49,8-2.07a55,55,0,0,1,8.23-1.34,19.48,19.48,0,0,1,4.28.27c1.38.22,2.73.5,4.07.84a66.74,66.74,0,0,1,7.84,2.49c-2.71-.41-5.4-.83-8.09-1.12a33.85,33.85,0,0,0-7.88-.24,77.78,77.78,0,0,0-7.79,1.78c-2.59.74-5.21,1.44-7.78,2.23l-.48.15-.53-.2a61.18,61.18,0,0,0-7.56-2.44,50,50,0,0,0-7.82-1.42c-1.31-.12-2.65-.19-4-.18s-2.68,0-4,.14A47.25,47.25,0,0,0,233.58,117.06Z" style="fill:#FFFFFF"></path><path d="M235.38,211.35a30.71,30.71,0,0,0,8.33,1.92,18.2,18.2,0,0,0,4.17-.14,27.53,27.53,0,0,0,4.21-1,10.52,10.52,0,0,1-4,2.13,5.31,5.31,0,0,1-1.11.28c-.38.06-.75.14-1.13.19a14.72,14.72,0,0,1-2.3,0,14.54,14.54,0,0,1-4.42-1A12.31,12.31,0,0,1,235.38,211.35Z" style="fill:#FFFFFF"></path><path d="M295.73,211.35a12.19,12.19,0,0,1-3.8,2.38,14.41,14.41,0,0,1-6.71,1c-.38-.05-.76-.13-1.14-.19a5.31,5.31,0,0,1-1.11-.28,10.6,10.6,0,0,1-4-2.13,27.81,27.81,0,0,0,4.21,1,18.2,18.2,0,0,0,4.17.14A30.54,30.54,0,0,0,295.73,211.35Z" style="fill:#FFFFFF"></path><path d="M245.46,215.56a28.24,28.24,0,0,0,6.62,1.85,10.38,10.38,0,0,0,3.2,0,5.75,5.75,0,0,0,1.36-.48,3.76,3.76,0,0,0,1.1-.87,21.41,21.41,0,0,0,3.77-5.32,38,38,0,0,0,2.61-6.12l1.39-4.35,1.47,4.33a48.08,48.08,0,0,0,2.48,6,23.31,23.31,0,0,0,1.59,2.76,13.9,13.9,0,0,0,1.93,2.4,6.41,6.41,0,0,0,5.43,1.76,16.87,16.87,0,0,0,6.22-2,14.11,14.11,0,0,1-6,3.42A8.57,8.57,0,0,1,275,219a7.29,7.29,0,0,1-3.47-1.6,13.62,13.62,0,0,1-2.55-2.6,25.15,25.15,0,0,1-2-2.95,36.21,36.21,0,0,1-2.88-6.37l2.86,0a36.07,36.07,0,0,1-3,6.63,20.54,20.54,0,0,1-4.72,5.66,6.34,6.34,0,0,1-1.75,1.09,6.85,6.85,0,0,1-2,.44,11.15,11.15,0,0,1-3.73-.49A20.48,20.48,0,0,1,245.46,215.56Z" style="fill:#FFFFFF"></path><path d="M232.43,187c-4.87,0-7.21,3.72-7.35,7.83a7.25,7.25,0,0,0,14.5.07C239.52,191.79,237.9,187,232.43,187Z" style="fill:#263238"></path><path d="M298.88,187c-4.87,0-7.21,3.72-7.35,7.83a7.25,7.25,0,0,0,14.5.07C306,191.79,304.35,187,298.88,187Z" style="fill:#263238"></path><path d="M253.87,180.9a52,52,0,0,0,9.22-2.1,57.44,57.44,0,0,0,8.53-3.55c.69-.33,1.34-.75,2-1.11l1-.56,1-.62,2-1.24c.62-.46,1.26-.9,1.9-1.35l1-.66.92-.73,1.87-1.45c1.25-1,2.41-2.06,3.74-3a41.34,41.34,0,0,1-2.69,4.06,35.32,35.32,0,0,1-3.31,3.61c-.6.56-1.2,1.12-1.82,1.66s-1.31,1-2,1.48l-1,.73-1.06.64c-.71.41-1.41.86-2.15,1.23a32.56,32.56,0,0,1-9.35,3.15A23.14,23.14,0,0,1,253.87,180.9Z" style="fill:#FFFFFF"></path><path d="M279.89,175.48c2.2-.41,4.3-.71,6.39-1s4.12-.7,6.15-1.11,4-.94,6-1.52,3.9-1.39,6-2.2a15.6,15.6,0,0,1-5.07,4.37,23.07,23.07,0,0,1-6.31,2.29,27.48,27.48,0,0,1-6.64.51A20.26,20.26,0,0,1,279.89,175.48Z" style="fill:#FFFFFF"></path><path d="M216.49,186.82a110.54,110.54,0,0,0,14.11-1.69,59.21,59.21,0,0,0,6.76-1.72,35.12,35.12,0,0,0,6.33-2.61,58.19,58.19,0,0,0,11.22-8.16c3.48-3.16,6.81-6.53,10.07-10.06a57.26,57.26,0,0,1-13.74,16.75,41.75,41.75,0,0,1-6.15,4.12,38.78,38.78,0,0,1-14.15,4A48.91,48.91,0,0,1,216.49,186.82Z" style="fill:#FFFFFF"></path><path d="M272.86,199.09c-2,1.09-7.31,3.1-7.31,3.1s-5.34-2-7.31-3.1c-1.25-.68-2.35-2-2.13-3.1s5.9-1.69,9.44-1.69,9.24.72,9.45,1.69S274.11,198.41,272.86,199.09Z" style="fill:#FFFFFF"></path><path d="M272.86,199.09c-2,1.09-7.31,3.1-7.31,3.1s-5.34-2-7.31-3.1c-1.25-.68-2.35-2-2.13-3.1s5.9-1.69,9.44-1.69,9.24.72,9.45,1.69S274.11,198.41,272.86,199.09Z" style="opacity:0.5"></path><path d="M250.87,252.56c1.67,1.07,3.26,2,4.87,2.83s3.23,1.61,4.88,2.32,3.34,1.35,5.08,1.93c.86.35,1.75.57,2.64.92s1.8.59,2.72,1a18.08,18.08,0,0,1-2.92.45,19.35,19.35,0,0,1-2.95-.08,20.47,20.47,0,0,1-5.74-1.47,19.29,19.29,0,0,1-5-3.15A12.58,12.58,0,0,1,250.87,252.56Z" style="fill:#FFFFFF"></path><path d="M267.87,257.07c2.23,0,4.2.26,6.21.44l3,.28c1,.12,2,.16,3.16.37a10,10,0,0,1-6.35,1.34,12.44,12.44,0,0,1-3.19-.74A8.73,8.73,0,0,1,267.87,257.07Z" style="fill:#FFFFFF"></path><g style="opacity:0.8"><path d="M405.71,329.47a17.42,17.42,0,0,1-14.26,16.76c-1.52,13.5-13.29,30.17-35.75,30.17-12.69,0-22-5.1-27.81-12.25a24.32,24.32,0,0,1-10.19,2.1,24.59,24.59,0,0,1-10.84-2.34c.16,1.34.25,2.65.28,3.9.3,13.91-11.48,33.66-35.92,33.66-20.38,0-32-13.13-34.62-26.81a23.81,23.81,0,0,1-11.87,3c-12,0-19.22-7.09-21.64-15-6,6.21-14.74,10.69-26.39,10.69-19,0-30.39-11.47-34-24.14a22.92,22.92,0,0,1-16,5.92c-15.35,0-22.89-11.62-22.56-21.78.41-12.65,8.78-23.36,22.56-23.36a26.2,26.2,0,0,1,4.26.33,16.69,16.69,0,0,1-.83-5.68c.33-10.06,7-18.56,17.93-18.56,13.2,0,17.93,10.73,18.27,18.25a36.84,36.84,0,0,1,10.3-1.41c24.4,0,34.07,18.67,35.67,33.19a22.05,22.05,0,0,1,12.36-3.55c10.11,0,16.28,5,19.65,11.07,6-7.62,15.21-12.52,26.84-12.52,10.85,0,18.78,3.7,24.4,9.08,2-10.66,9.93-19,22.08-19a24.78,24.78,0,0,1,8.4,1.36A32.78,32.78,0,0,1,346.76,307c0-.14,0-.28,0-.41.33-10.06,7-18.56,17.92-18.56,13.47,0,18.13,11.18,18.29,18.72a14.9,14.9,0,0,1-.7,4.68,18.73,18.73,0,0,1,5.14-.69C400.89,310.74,405.55,321.93,405.71,329.47Z" style="fill:#FFFFFF"></path><path d="M405.71,329.47a17.42,17.42,0,0,1-14.26,16.76c-1.52,13.5-13.29,30.17-35.75,30.17-12.69,0-22-5.1-27.81-12.25a24.32,24.32,0,0,1-10.19,2.1,24.59,24.59,0,0,1-10.84-2.34c.16,1.34.25,2.65.28,3.9.3,13.91-11.48,33.66-35.92,33.66-20.38,0-32-13.13-34.62-26.81a23.81,23.81,0,0,1-11.87,3c-12,0-19.22-7.09-21.64-15-6,6.21-14.74,10.69-26.39,10.69-19,0-30.39-11.47-34-24.14a22.92,22.92,0,0,1-16,5.92c-15.35,0-22.89-11.62-22.56-21.78.41-12.65,8.78-23.36,22.56-23.36a26.2,26.2,0,0,1,4.26.33,16.69,16.69,0,0,1-.83-5.68c.33-10.06,7-18.56,17.93-18.56,13.2,0,17.93,10.73,18.27,18.25a36.84,36.84,0,0,1,10.3-1.41c24.4,0,34.07,18.67,35.67,33.19a22.05,22.05,0,0,1,12.36-3.55c10.11,0,16.28,5,19.65,11.07,6-7.62,15.21-12.52,26.84-12.52,10.85,0,18.78,3.7,24.4,9.08,2-10.66,9.93-19,22.08-19a24.78,24.78,0,0,1,8.4,1.36A32.78,32.78,0,0,1,346.76,307c0-.14,0-.28,0-.41.33-10.06,7-18.56,17.92-18.56,13.47,0,18.13,11.18,18.29,18.72a14.9,14.9,0,0,1-.7,4.68,18.73,18.73,0,0,1,5.14-.69C400.89,310.74,405.55,321.93,405.71,329.47Z" style="fill:#fff;opacity:0.8"></path></g><g style="opacity:0.8"><path d="M113.52,265.25c-11.46,0-18.42,8.91-18.77,19.44-.28,8.45,6,18.13,18.77,18.13,13,0,19.33-10.54,19.16-18C132.51,277,127.63,265.25,113.52,265.25Z" style="fill:#FFFFFF"></path><path d="M113.52,265.25c-11.46,0-18.42,8.91-18.77,19.44-.28,8.45,6,18.13,18.77,18.13,13,0,19.33-10.54,19.16-18C132.51,277,127.63,265.25,113.52,265.25Z" style="fill:#fff;opacity:0.8"></path></g><g style="opacity:0.8"><path d="M403.92,291.67c-7.94,0-12.76,6.17-13,13.46-.19,5.85,4.15,12.55,13,12.55,9,0,13.37-7.29,13.26-12.43C417.06,299.78,413.68,291.67,403.92,291.67Z" style="fill:#FFFFFF"></path><path d="M403.92,291.67c-7.94,0-12.76,6.17-13,13.46-.19,5.85,4.15,12.55,13,12.55,9,0,13.37-7.29,13.26-12.43C417.06,299.78,413.68,291.67,403.92,291.67Z" style="fill:#fff;opacity:0.8"></path></g><g style="opacity:0.8"><path d="M383.27,246.22c-6.44,0-10.35,5-10.54,10.92-.16,4.76,3.37,10.19,10.54,10.19A10.36,10.36,0,0,0,394,257.24C393.94,252.8,391.2,246.22,383.27,246.22Z" style="fill:#FFFFFF"></path><path d="M383.27,246.22c-6.44,0-10.35,5-10.54,10.92-.16,4.76,3.37,10.19,10.54,10.19A10.36,10.36,0,0,0,394,257.24C393.94,252.8,391.2,246.22,383.27,246.22Z" style="fill:#fff;opacity:0.8"></path></g><g style="opacity:0.8"><path d="M176.21,270c-6.45,0-10.36,5-10.55,10.92-.16,4.75,3.37,10.19,10.55,10.19A10.36,10.36,0,0,0,187,281C186.87,276.54,184.13,270,176.21,270Z" style="fill:#FFFFFF"></path><path d="M176.21,270c-6.45,0-10.36,5-10.55,10.92-.16,4.75,3.37,10.19,10.55,10.19A10.36,10.36,0,0,0,187,281C186.87,276.54,184.13,270,176.21,270Z" style="fill:#fff;opacity:0.8"></path></g><g style="opacity:0.8"><path d="M128.6,230.08c-4.65,0-7.47,3.61-7.61,7.88a7.18,7.18,0,0,0,7.61,7.34,7.46,7.46,0,0,0,7.76-7.27C136.29,234.82,134.32,230.08,128.6,230.08Z" style="fill:#FFFFFF"></path><path d="M128.6,230.08c-4.65,0-7.47,3.61-7.61,7.88a7.18,7.18,0,0,0,7.61,7.34,7.46,7.46,0,0,0,7.76-7.27C136.29,234.82,134.32,230.08,128.6,230.08Z" style="fill:#fff;opacity:0.8"></path></g><g style="opacity:0.8"><path d="M363.24,264.61c-4.65,0-7.47,3.61-7.61,7.88a7.18,7.18,0,0,0,7.61,7.34,7.46,7.46,0,0,0,7.76-7.27C370.93,269.35,369,264.61,363.24,264.61Z" style="fill:#FFFFFF"></path><path d="M363.24,264.61c-4.65,0-7.47,3.61-7.61,7.88a7.18,7.18,0,0,0,7.61,7.34,7.46,7.46,0,0,0,7.76-7.27C370.93,269.35,369,264.61,363.24,264.61Z" style="fill:#fff;opacity:0.8"></path></g><circle cx="189.35" cy="316.73" r="7.94" style="fill:#fff"></circle><circle cx="367.98" cy="299.61" r="7.94" style="fill:#fff"></circle><circle cx="395.64" cy="325.22" r="7.94" style="fill:#fff"></circle><circle cx="119.28" cy="278.06" r="7.94" style="fill:#fff"></circle><circle cx="133.47" cy="323.16" r="7.94" style="fill:#fff"></circle><path d="M183.65,276.66a4.47,4.47,0,1,1-4.47-4.47A4.47,4.47,0,0,1,183.65,276.66Z" style="fill:#fff"></path><path d="M390.72,253.49a4.47,4.47,0,1,1-4.47-4.47A4.47,4.47,0,0,1,390.72,253.49Z" style="fill:#fff"></path><path d="M413,299.89a4.47,4.47,0,1,1-4.47-4.47A4.47,4.47,0,0,1,413,299.89Z" style="fill:#fff"></path><path d="M368.65,269.21a2.67,2.67,0,1,1-2.67-2.67A2.66,2.66,0,0,1,368.65,269.21Z" style="fill:#fff"></path><circle cx="130.8" cy="234.44" r="2.67" style="fill:#fff"></circle><circle cx="277.97" cy="347.15" r="11.35" transform="translate(-127.64 529.53) rotate(-75.53)" style="fill:#fff"></circle><path d="M386.6,365.46s-6.57,20.4-11.76,34.23-19.47,64.9-53.13,64.9H178.29c-33.66,0-47.94-51.07-53.13-64.9s-11.76-34.23-11.76-34.23Z" style="fill:#455a64"></path><path d="M386.6,365.46s-.85,2.65-2.18,6.68L118.56,381c-2.91-8.57-5.16-15.54-5.16-15.54Z" style="fill:#37474f"></path><path d="M394.15,346.44H105.85a4.45,4.45,0,0,0-4.42,4.91l1.07,10.13a4.44,4.44,0,0,0,4.41,4H393.09a4.44,4.44,0,0,0,4.41-4l1.07-10.13A4.45,4.45,0,0,0,394.15,346.44Z" style="fill:#455a64"></path></g><g id="freepik--Medicines--inject-12"><rect x="80.57" y="406.7" width="46.26" height="69.39" transform="translate(545.1 337.7) rotate(90)" style="fill:#37474f"></rect><rect x="87.63" y="422.13" width="30.8" height="30.8" transform="translate(540.56 334.51) rotate(90)" style="fill:#fff"></rect><rect x="145.3" y="449.27" width="54.73" height="15.04" transform="translate(345.32 913.59) rotate(180)" style="fill:#FFFFFF"></rect><g style="opacity:0.1"><rect x="196.4" y="451.13" width="1" height="11.34"></rect><rect x="193.37" y="451.13" width="1" height="11.34"></rect><rect x="190.34" y="451.13" width="1" height="11.34"></rect><rect x="187.31" y="451.13" width="1" height="11.34"></rect><rect x="184.28" y="451.13" width="1" height="11.34"></rect><rect x="181.25" y="451.13" width="1" height="11.34"></rect><rect x="178.22" y="451.13" width="1" height="11.34"></rect><rect x="175.19" y="451.13" width="1" height="11.34"></rect><rect x="172.16" y="451.13" width="1" height="11.34"></rect><rect x="169.13" y="451.13" width="1" height="11.34"></rect><rect x="166.1" y="451.13" width="1" height="11.34"></rect><rect x="163.07" y="451.13" width="1" height="11.34"></rect><rect x="160.04" y="451.13" width="1" height="11.34"></rect><rect x="157.01" y="451.13" width="1" height="11.34"></rect><rect x="153.98" y="451.13" width="1" height="11.34"></rect><rect x="150.95" y="451.13" width="1" height="11.34"></rect><rect x="147.92" y="451.13" width="1" height="11.34"></rect></g><path d="M107.8,436.72c.39,0,.79,0,1.18,0a11.33,11.33,0,0,0,2.84-.41,3.94,3.94,0,0,0,.73-.32,1.38,1.38,0,0,0,.67-1.81,4.18,4.18,0,0,0-1-1.5,5.82,5.82,0,0,0-3.32-1.87,4.13,4.13,0,0,0-3.58,1.11,2.43,2.43,0,0,0,.06,3.69A4.17,4.17,0,0,0,107.8,436.72Z" style="fill:#37474f"></path><path d="M105.41,443.19a4.14,4.14,0,0,0,4.11.89,6.07,6.07,0,0,0,3.4-2.63,2.76,2.76,0,0,0,.33-.72,1.33,1.33,0,0,0-.61-1.64,4.87,4.87,0,0,0-2-.63c-.53-.06-1.07-.1-1.61-.14a5.3,5.3,0,0,0-2.85.57,3.08,3.08,0,0,0-1.35,1.32A2.38,2.38,0,0,0,105.41,443.19Z" style="fill:#37474f"></path><path d="M99.56,446.14a3.84,3.84,0,0,0,3.24,2.32,4.17,4.17,0,0,0,.5,0,5.22,5.22,0,0,0,2.9-.81,1.3,1.3,0,0,0,.23-.18,1.43,1.43,0,0,0,.24-2.17A5.5,5.5,0,0,0,105,444a6.12,6.12,0,0,0-2.6-1,3.38,3.38,0,0,0-1.69.25A2.14,2.14,0,0,0,99.56,446.14Z" style="fill:#37474f"></path><path d="M96.64,429.92c-.14,0-.29,0-.48,0a3.24,3.24,0,0,0-3,2.1,5.62,5.62,0,0,0-.13,4.17,4.25,4.25,0,0,1,0,2.75,5.71,5.71,0,0,0,.08,4.11,3.28,3.28,0,0,0,2.54,2.13,3.48,3.48,0,0,0,2.68-.68,7.17,7.17,0,0,0,1.18-1.09,10.76,10.76,0,0,1,2.66-2.28,4.13,4.13,0,0,0-.27-7.27A5.68,5.68,0,0,1,99.77,432,4.82,4.82,0,0,0,97,430Z" style="fill:#37474f"></path><path d="M103.42,426.6a4,4,0,0,0-3.68,2,2.21,2.21,0,0,0,1.13,3.37,3.27,3.27,0,0,0,1.58.18,7,7,0,0,0,3.31-1.48,5.12,5.12,0,0,0,.94-.92,1.37,1.37,0,0,0-.22-2.06,4.32,4.32,0,0,0-2.1-.94C104,426.65,103.65,426.63,103.42,426.6Z" style="fill:#37474f"></path><polygon points="138.4 418.27 132.99 418.27 123.14 444.31 69 444.31 69 456.8 138.4 456.8 138.4 418.27" style="opacity:0.1"></polygon><rect x="51.29" y="395.19" width="46.26" height="69.39" style="fill:#FFFFFF"></rect><rect x="55.16" y="415.16" width="30.8" height="30.8" style="fill:#fff"></rect><rect x="47.06" y="380.15" width="54.73" height="15.04" style="fill:#37474f"></rect><rect x="49.68" y="382" width="1" height="11.34" style="fill:#263238"></rect><rect x="52.71" y="382" width="1" height="11.34" style="fill:#263238"></rect><rect x="55.74" y="382" width="1" height="11.34" style="fill:#263238"></rect><rect x="58.77" y="382" width="1" height="11.34" style="fill:#263238"></rect><rect x="61.8" y="382" width="1" height="11.34" style="fill:#263238"></rect><rect x="64.83" y="382" width="1" height="11.34" style="fill:#263238"></rect><rect x="67.86" y="382" width="1" height="11.34" style="fill:#263238"></rect><rect x="70.89" y="382" width="1" height="11.34" style="fill:#263238"></rect><rect x="73.92" y="382" width="1" height="11.34" style="fill:#263238"></rect><rect x="76.95" y="382" width="1" height="11.34" style="fill:#263238"></rect><rect x="79.98" y="382" width="1" height="11.34" style="fill:#263238"></rect><rect x="83.01" y="382" width="1" height="11.34" style="fill:#263238"></rect><rect x="86.04" y="382" width="1" height="11.34" style="fill:#263238"></rect><rect x="89.07" y="382" width="1" height="11.34" style="fill:#263238"></rect><rect x="92.1" y="382" width="1" height="11.34" style="fill:#263238"></rect><rect x="95.13" y="382" width="1" height="11.34" style="fill:#263238"></rect><rect x="98.16" y="382" width="1" height="11.34" style="fill:#263238"></rect><path d="M69.74,425.79c0-.39,0-.79.06-1.19a11.41,11.41,0,0,0-.42-2.84,3.9,3.9,0,0,0-.31-.73,1.38,1.38,0,0,0-1.81-.66,4.07,4.07,0,0,0-1.5,1,5.85,5.85,0,0,0-1.87,3.33,4.12,4.12,0,0,0,1.1,3.58,2.44,2.44,0,0,0,3.7-.06A4.16,4.16,0,0,0,69.74,425.79Z" style="fill:#FFFFFF"></path><path d="M76.21,428.18a4.15,4.15,0,0,0,.89-4.12,6.12,6.12,0,0,0-2.62-3.4,3.17,3.17,0,0,0-.73-.32,1.32,1.32,0,0,0-1.63.61,4.73,4.73,0,0,0-.63,2c-.07.54-.1,1.08-.15,1.62a5.42,5.42,0,0,0,.57,2.85,3.26,3.26,0,0,0,1.33,1.35A2.38,2.38,0,0,0,76.21,428.18Z" style="fill:#FFFFFF"></path><path d="M79.17,434a3.82,3.82,0,0,0,2.31-3.23,4.17,4.17,0,0,0,0-.5,5.14,5.14,0,0,0-.81-2.9l-.17-.24a1.43,1.43,0,0,0-2.17-.23A5.38,5.38,0,0,0,77,428.56a6.25,6.25,0,0,0-1,2.6,3.4,3.4,0,0,0,.25,1.7A2.15,2.15,0,0,0,79.17,434Z" style="fill:#FFFFFF"></path><path d="M62.94,436.94c0,.15,0,.29,0,.48a3.25,3.25,0,0,0,2.11,3,5.59,5.59,0,0,0,4.16.12,4.28,4.28,0,0,1,2.76,0,5.63,5.63,0,0,0,4.1-.09,3.25,3.25,0,0,0,2.13-2.54,3.45,3.45,0,0,0-.67-2.67A6.84,6.84,0,0,0,76.4,434a10.51,10.51,0,0,1-2.27-2.66A4.11,4.11,0,0,0,68.27,430a3.86,3.86,0,0,0-1.41,1.61A5.6,5.6,0,0,1,65,433.81a4.79,4.79,0,0,0-2,2.8C63,436.72,63,436.83,62.94,436.94Z" style="fill:#FFFFFF"></path><path d="M59.62,430.16a4,4,0,0,0,2,3.69A2.21,2.21,0,0,0,65,432.71a3.36,3.36,0,0,0,.19-1.57,7,7,0,0,0-1.49-3.31,4.55,4.55,0,0,0-.92-.94,1.38,1.38,0,0,0-2.06.21,4.41,4.41,0,0,0-.94,2.1C59.67,429.57,59.65,429.94,59.62,430.16Z" style="fill:#FFFFFF"></path><polygon points="51.29 395.19 51.29 400.6 77.33 410.44 77.33 464.58 89.82 464.58 89.82 395.19 51.29 395.19" style="opacity:0.1"></polygon><rect x="131.72" y="453.34" width="22.27" height="11.19" rx="5.6" style="fill:#263238"></rect><path d="M131.72,458.93h0a5.59,5.59,0,0,1,5.6-5.58h5.54v11.19h-5.54A5.6,5.6,0,0,1,131.72,458.93Z" style="fill:#FFFFFF"></path><path d="M111.27,458.93v0a5.59,5.59,0,0,1-5.6,5.58H94.59A5.59,5.59,0,0,1,89,459v0a5.6,5.6,0,0,1,5.59-5.59h11.08A5.6,5.6,0,0,1,111.27,458.93Z" style="fill:#263238"></path><path d="M111.27,458.93v0a5.59,5.59,0,0,1-5.6,5.58h-5.54V453.34h5.54A5.6,5.6,0,0,1,111.27,458.93Z" style="fill:#FFFFFF"></path><path d="M218.32,462.89h0a5.59,5.59,0,0,1-7.9,0l-7.83-7.84a5.59,5.59,0,0,1,0-7.9h0a5.6,5.6,0,0,1,7.91,0l7.83,7.83A5.59,5.59,0,0,1,218.32,462.89Z" style="fill:#263238"></path><path d="M218.32,462.89h0a5.59,5.59,0,0,1-7.9,0L206.49,459l7.91-7.91,3.92,3.92A5.59,5.59,0,0,1,218.32,462.89Z" style="fill:#FFFFFF"></path><path d="M125.43,462.89h0a5.59,5.59,0,0,1-7.9,0l-7.83-7.84a5.58,5.58,0,0,1,0-7.9h0a5.6,5.6,0,0,1,7.91,0l7.83,7.83A5.59,5.59,0,0,1,125.43,462.89Z" style="fill:#263238"></path><path d="M125.43,462.89h0a5.59,5.59,0,0,1-7.9,0L113.6,459l7.91-7.91,3.92,3.92A5.59,5.59,0,0,1,125.43,462.89Z" style="fill:#FFFFFF"></path></g><g id="freepik--Food--inject-12"><circle cx="356.56" cy="413.11" r="7.76" style="fill:#FFFFFF"></circle><circle cx="356.56" cy="413.11" r="7.76" style="opacity:0.6000000000000001"></circle><circle cx="398.82" cy="413.47" r="7.76" transform="translate(-95.45 706.24) rotate(-76.67)" style="fill:#FFFFFF"></circle><circle cx="398.82" cy="413.47" r="7.76" transform="translate(-95.45 706.24) rotate(-76.67)" style="opacity:0.6000000000000001"></circle><circle cx="420.74" cy="411.78" r="7.76" style="fill:#FFFFFF"></circle><circle cx="420.74" cy="411.78" r="7.76" style="opacity:0.6000000000000001"></circle><circle cx="388.16" cy="409.23" r="7.76" transform="translate(-78.09 726.65) rotate(-80.76)" style="fill:#FFFFFF"></circle><circle cx="388.16" cy="409.23" r="7.76" transform="translate(-78.09 726.65) rotate(-80.76)" style="opacity:0.6000000000000001"></circle><circle cx="366.02" cy="406.64" r="6.83" style="fill:#FFFFFF"></circle><circle cx="366.02" cy="406.64" r="6.83" style="opacity:0.6000000000000001"></circle><path d="M385.32,412.55a6.83,6.83,0,1,1-6.83-6.84A6.83,6.83,0,0,1,385.32,412.55Z" style="fill:#FFFFFF"></path><path d="M385.32,412.55a6.83,6.83,0,1,1-6.83-6.84A6.83,6.83,0,0,1,385.32,412.55Z" style="opacity:0.6000000000000001"></path><circle cx="370.33" cy="413.11" r="5.72" style="fill:#FFFFFF"></circle><circle cx="370.33" cy="413.11" r="5.72" style="opacity:0.6000000000000001"></circle><path d="M385.32,407.39a5.72,5.72,0,1,1-5.71-5.72A5.72,5.72,0,0,1,385.32,407.39Z" style="fill:#FFFFFF"></path><path d="M385.32,407.39a5.72,5.72,0,1,1-5.71-5.72A5.72,5.72,0,0,1,385.32,407.39Z" style="opacity:0.6000000000000001"></path><path d="M409.31,408.06a5.72,5.72,0,1,1-5.72-5.72A5.72,5.72,0,0,1,409.31,408.06Z" style="fill:#FFFFFF"></path><path d="M409.31,408.06a5.72,5.72,0,1,1-5.72-5.72A5.72,5.72,0,0,1,409.31,408.06Z" style="opacity:0.6000000000000001"></path><path d="M415.88,410.7a5.72,5.72,0,1,1-5.72-5.72A5.72,5.72,0,0,1,415.88,410.7Z" style="fill:#FFFFFF"></path><path d="M415.88,410.7a5.72,5.72,0,1,1-5.72-5.72A5.72,5.72,0,0,1,415.88,410.7Z" style="opacity:0.6000000000000001"></path><path d="M419.34,404.64a4.59,4.59,0,1,1-4.59-4.59A4.59,4.59,0,0,1,419.34,404.64Z" style="fill:#FFFFFF"></path><path d="M419.34,404.64a4.59,4.59,0,1,1-4.59-4.59A4.59,4.59,0,0,1,419.34,404.64Z" style="opacity:0.6000000000000001"></path><path d="M431.88,410.7a4.59,4.59,0,1,1-4.59-4.59A4.58,4.58,0,0,1,431.88,410.7Z" style="fill:#FFFFFF"></path><path d="M431.88,410.7a4.59,4.59,0,1,1-4.59-4.59A4.58,4.58,0,0,1,431.88,410.7Z" style="opacity:0.6000000000000001"></path><rect x="325.14" y="457.47" width="130.41" height="7.23" style="fill:#FFFFFF"></rect><polygon points="432.81 411.78 347.88 411.78 331.28 457.47 449.41 457.47 432.81 411.78" style="fill:#FFFFFF"></polygon><polygon points="449.41 457.47 448.05 453.74 334.57 448.4 331.28 457.47 449.41 457.47" style="opacity:0.1"></polygon><path d="M382.87,429.62a5,5,0,1,1-5-5A5,5,0,0,1,382.87,429.62Z" style="fill:#fff"></path><path d="M382.84,437.25a5,5,0,1,1-5-5A5,5,0,0,1,382.84,437.25Z" style="fill:#fff"></path><path d="M407.86,429.62a5,5,0,1,1-5-5A5,5,0,0,1,407.86,429.62Z" style="fill:#fff"></path><path d="M407.86,437.27a5,5,0,1,1-5-5A5,5,0,0,1,407.86,437.27Z" style="fill:#fff"></path><rect x="378.44" y="429.12" width="23.81" height="8.6" style="fill:#fff"></rect></g><g id="freepik--Floor--inject-12"><polygon points="44.45 464.7 95.84 464.45 147.23 464.37 250 464.2 352.77 464.36 404.16 464.45 455.55 464.7 404.16 464.94 352.77 465.03 250 465.2 147.23 465.03 95.84 464.94 44.45 464.7" style="fill:#263238"></polygon></g></svg>
